<svg xmlns="http://www.w3.org/2000/svg" xmlns:xlink="http://www.w3.org/1999/xlink" xmlns:lucid="lucid" width="2494" height="1428"><g transform="translate(-200 317.9999999999612)" lucid:page-tab-id="0_0"><path d="M0-500h3000v2000H0z" fill="#fff"/><path d="M714.67-292a6 6 0 0 1 6-6h1650a6 6 0 0 1 6 6v1376a6 6 0 0 1-6 6h-1650a6 6 0 0 1-6-6z" stroke="#232f3e" stroke-width="4" fill="#fff" fill-opacity="0"/><path d="M714.67-298h56v56h-56v-56z" stroke="#fff" stroke-opacity="0" fill="#232f3e"/><path d="M755.54-256.78h-25c-4.12.05-7.56-3.1-7.88-7.2v-.64c-.16-3.4 1.96-6.38 5.24-7.36v-.66c.12-4.22 2.44-7.75 6.24-9.57 4.12-1.86 8.72-.96 11.8 2.3 1.08 1.1 1.84 2.2 2.44 3.6 1.2-1 2.72-1.32 4.25-.9 2.24.8 3.68 2.74 3.76 5.1 3.67.65 6.3 3.8 6.27 7.56 0 7.07-7.04 7.73-7.13 7.76zm-26.68-13.88c-2.84.6-4.76 3.14-4.6 6.04v.53c.28 3.33 3.08 5.84 6.4 5.76h24.97c3.04-.3 5.4-2.64 5.68-5.7.3-3.43-2.23-6.5-5.67-6.78-.45-.05-.73-.44-.64-.87.07-1.83-1-3.44-2.74-4.13-1.32-.37-2.64.13-3.44 1.24-.2.25-.44.38-.76.33-.28-.05-.48-.24-.6-.5-.6-1.6-1.4-2.85-2.6-4.04-2.68-2.8-6.6-3.6-10.12-2-3.24 1.6-5.2 4.63-5.32 8.24-.04.4-.04.74 0 1.14.04.4-.2.76-.6.84z" stroke="#fff" stroke-opacity="0" fill="#fff"/><use xlink:href="#a" transform="matrix(1,0,0,1,785.6666666667055,-277.9999999999612) translate(0 21.511111111111106)"/><use xlink:href="#b" transform="matrix(1,0,0,1,785.6666666667055,-277.9999999999612) translate(67.67037037037036 21.511111111111106)"/><path d="M886-210a6 6 0 0 1 6-6h1196a6 6 0 0 1 6 6v928a6 6 0 0 1-6 6H892a6 6 0 0 1-6-6z" stroke="#248814" stroke-width="2" fill="#fff" fill-opacity="0"/><path d="M886-216h56v56h-56v-56z" stroke="#fff" stroke-opacity="0" fill="#248814"/><path d="M917.76-187.7h-1.18v-1.1c-.12-1.73-1.48-3.07-3.2-3.2-1.9-.13-3.54 1.3-3.67 3.2v1.07h-1.17c-.44 0-.8.36-.8.8v6.13c0 .44.36.8.8.8h9.23c.44 0 .8-.36.8-.8v-6.1c0-.44-.36-.8-.8-.8zm-6.4-1.06c.1-1.03 1-1.77 2-1.67.9.08 1.58.77 1.67 1.67v1.06h-3.72zm5.65 7.08h-7.67v-4.42h7.63z" stroke="#fff" stroke-opacity="0" fill="#fff"/><path d="M928.27-190.25c-.1-2.45-1.58-4.48-3.87-5.3-1.58-.47-3.16-.14-4.4.9-.68-1.45-1.47-2.6-2.6-3.76-3.24-3.36-7.94-4.3-12.18-2.4-4.04 1.9-6.4 5.63-6.54 10.05v.7c-3.4.98-5.66 4.08-5.5 7.65v.63c.4 4.28 3.92 7.52 8.2 7.47h26s7.42-.63 7.42-8.1c.04-3.9-2.66-7.2-6.53-7.85zm-.96 14.38h-25.9c-3.47.06-6.3-2.52-6.6-5.96v-.52c-.15-3.05 1.93-5.7 4.92-6.3.38-.12.63-.48.6-.9-.06-.4-.06-.73 0-1.14.07-3.78 2.1-6.94 5.52-8.6 1.25-.56 2.4-.8 3.83-.84 2.62.08 4.87 1.04 6.7 2.94 1.25 1.3 2.04 2.6 2.62 4.3.03.15.1.28.24.37.37.27.87.2 1.12-.17.83-1.18 2.25-1.67 3.62-1.3 1.8.72 2.87 2.4 2.83 4.32-.07.4.22.83.64.9 3.57.36 6.2 3.55 5.82 7.12-.3 3.13-2.7 5.52-5.82 5.85z" stroke="#fff" stroke-opacity="0" fill="#fff"/><use xlink:href="#c" transform="matrix(1,0,0,1,957,-196) translate(0 14.4)"/><use xlink:href="#d" transform="matrix(1,0,0,1,957,-196) translate(55.5 14.4)"/><use xlink:href="#e" transform="matrix(1,0,0,1,957,-196) translate(116.4 14.4)"/><path d="M1154-42a6 6 0 0 1 6-6h714a6 6 0 0 1 6 6v664a6 6 0 0 1-6 6h-714a6 6 0 0 1-6-6z" fill="#fff" fill-opacity="0"/><path d="M1171.9-48h7.93m7.94 0h7.93m7.93 0h7.94m7.93 0h7.93m7.94 0h7.93m7.93 0h7.94m7.93 0h7.93m7.94 0h7.93m7.93 0h7.94m7.93 0h7.93m7.94 0h7.93m7.93 0h7.94m7.93 0h7.93m7.94 0h7.93m7.93 0h7.94m7.93 0h7.93m7.94 0h7.93m7.93 0h7.94m7.93 0h7.93m7.94 0h7.93m7.93 0h7.94m7.93 0h7.93m7.94 0h7.93m7.93 0h7.94m7.93 0h7.93m7.94 0h7.93m7.93 0h7.94m7.93 0h7.93m7.94 0h7.93m7.93 0h7.94m7.93 0h7.93m7.94 0h7.93m7.93 0h7.94m7.93 0h7.93m7.94 0h7.93m7.93 0h7.94m7.93 0h7.93m7.94 0h7.93m7.93 0h7.94m7.93 0h7.93m7.94 0h7.93m7.93 0h7.94m7.93 0h7.93m7.94 0h7.93m7.93 0h3.97l.94.07.9.22.88.35.8.5.72.6.6.72.5.8.37.88.23.9.07.95v3.95m0 7.9v7.9m0 7.92v7.9m0 7.9v7.9m0 7.92v7.9m0 7.9V41m0 7.9v7.9m0 7.9v7.92m0 7.9v7.9m0 7.9v7.92m0 7.9v7.9m0 7.9v7.92m0 7.9v7.9m0 7.9v7.92m0 7.9v7.9m0 7.9v7.9m0 7.92v7.9m0 7.9v7.9m0 7.92v7.9m0 7.9v7.9m0 7.92v7.9m0 7.9v7.9m0 7.92v7.9m0 7.9v7.9m0 7.92v7.9m0 7.9v7.9m0 7.92v7.9m0 7.9v7.9m0 7.9v7.92m0 7.9v7.9m0 7.9v7.92m0 7.9v7.9m0 7.9v7.92m0 7.9v7.9m0 7.9v7.92m0 7.9v7.9m0 7.9v7.92m0 7.9v7.9m0 7.9v7.9m0 7.92v7.9m0 7.9v7.9m0 7.92v7.9m0 7.9V622l-.07.94-.22.9-.35.88-.5.8-.6.72-.72.6-.8.5-.88.37-.9.23-.95.07h-3.97m-7.93 0h-7.93m-7.94 0h-7.93m-7.93 0h-7.94m-7.93 0h-7.93m-7.94 0h-7.93m-7.93 0h-7.94m-7.93 0h-7.93m-7.94 0h-7.93m-7.93 0h-7.94m-7.93 0h-7.93m-7.94 0h-7.93m-7.93 0h-7.94m-7.93 0h-7.93m-7.94 0h-7.93m-7.93 0h-7.94m-7.93 0h-7.93m-7.94 0h-7.93m-7.93 0h-7.94m-7.93 0h-7.93m-7.94 0h-7.93m-7.93 0h-7.94m-7.93 0h-7.93m-7.94 0h-7.93m-7.93 0h-7.94m-7.93 0h-7.93m-7.94 0h-7.93m-7.93 0h-7.94m-7.93 0h-7.93m-7.94 0h-7.93m-7.93 0h-7.94m-7.93 0h-7.93m-7.94 0h-7.93m-7.93 0h-7.94m-7.93 0h-7.93m-7.94 0h-7.93m-7.93 0h-7.94m-7.93 0h-7.93m-7.94 0h-7.93m-7.93 0h-7.94m-7.93 0h-7.93m-7.94 0h-7.93m-7.93 0h-7.94m-7.93 0h-7.93m-7.94 0h-7.93m-7.93 0H1160l-.94-.07-.9-.22-.88-.35-.8-.5-.72-.6-.6-.72-.5-.8-.37-.88-.23-.9-.07-.95v-3.95m0-7.9v-7.9m0-7.92v-7.9m0-7.9v-7.9m0-7.92v-7.9m0-7.9V539m0-7.9v-7.9m0-7.9v-7.92m0-7.9v-7.9m0-7.9v-7.92m0-7.9v-7.9m0-7.9v-7.92m0-7.9v-7.9m0-7.9v-7.92m0-7.9v-7.9m0-7.9v-7.92m0-7.9v-7.9m0-7.9v-7.9m0-7.92v-7.9m0-7.9v-7.9m0-7.92v-7.9m0-7.9v-7.9m0-7.92v-7.9m0-7.9v-7.9m0-7.92v-7.9m0-7.9v-7.9m0-7.9V207m0-7.9v-7.9m0-7.9v-7.92m0-7.9v-7.9m0-7.9v-7.92m0-7.9v-7.9m0-7.9v-7.92m0-7.9v-7.9m0-7.9V80.5m0-7.9v-7.9m0-7.9v-7.9m0-7.92v-7.9m0-7.9v-7.9m0-7.92v-7.9m0-7.9v-7.9m0-7.92v-7.9m0-7.9V-42l.07-.94.22-.9.35-.88.5-.8.6-.72.72-.6.8-.5.88-.37.9-.23.95-.07h3.97" stroke="#d86613" stroke-width="2" fill="none"/><path d="M1154-48h56V8h-56v-56z" stroke="#fff" stroke-opacity="0" stroke-width="2" fill="#d86613"/><path d="M1181.84.1c-.14 0-.28-.03-.38-.1l-17-9.8c-.27-.15-.4-.4-.4-.67v-19.85c0-.28.13-.52.4-.7l15.64-9c.3-.25.78-.13 1.02.2.1.16.14.32.14.48v8.62c0 .24-.14.48-.38.64l-7.83 4.47v10.42l8.82 5.07 7.7-4.48c.23-.16.5-.16.75 0l7.38 4.27c.28.1.4.35.4.67 0 .28-.12.53-.4.65L1182.2 0c-.1.07-.23.1-.37.1zm-16.25-11.1l16.64 9.63 14.3-8.3-5.95-3.42-7.95 4.6c-.27.12-.54.12-.82 0l-9.9-5.72c-.28-.16-.4-.4-.4-.68V-26c0-.3.12-.54.4-.7l7.8-4.47V-38l-14.17 8.2z" stroke="#fff" stroke-opacity="0" stroke-width="2" fill="#fff"/><path d="M1199.13-11.4c-.15 0-.27-.04-.4-.13l-7.4-4.27c-.25-.14-.4-.37-.4-.7v-9.02l-7.8-4.5c-.27-.14-.4-.4-.4-.68v-8.6c0-.3.13-.55.4-.66.2-.14.5-.14.73 0l15.7 9c.25.14.38.4.38.7v18.02c0 .3-.13.54-.4.68-.13.1-.25.15-.4.15zm-6.68-5.57l5.98 3.44V-29.8l-14.2-8.18v6.8l7.84 4.55c.26.14.42.37.4.68z" stroke="#fff" stroke-opacity="0" stroke-width="2" fill="#fff"/><use xlink:href="#f" transform="matrix(1,0,0,1,1225,-28) translate(0 14.4)"/><use xlink:href="#g" transform="matrix(1,0,0,1,1225,-28) translate(41.95 14.4)"/><use xlink:href="#h" transform="matrix(1,0,0,1,1225,-28) translate(103.80000000000001 14.4)"/><path d="M1673.24 43c1.56 0 2.76 1.25 2.76 2.73v72.54c0 1.48-1.2 2.73-2.76 2.73h-114.48c-1.56 0-2.76-1.25-2.76-2.73V45.73c0-1.48 1.2-2.73 2.76-2.73zm-111.84 72.46h109.2V48.54h-109.2zm8.88-6.86V55.4h5.52v53.2zm14.4 0V55.4h5.4v53.2zm14.28 0V55.4h5.4v53.2zm14.28 0V55.4h5.52v53.2zm14.4 0V55.4h5.4v53.2zm14.28 0V55.4h5.4v53.2zm14.28 0V55.4h5.52v53.2zM1673.24 337c1.56 0 2.76 1.25 2.76 2.73v72.54c0 1.48-1.2 2.73-2.76 2.73h-114.48c-1.56 0-2.76-1.25-2.76-2.73v-72.54c0-1.48 1.2-2.73 2.76-2.73zm-111.84 72.46h109.2v-66.92h-109.2zm8.88-6.86v-53.2h5.52v53.2zm14.4 0v-53.2h5.4v53.2zm14.28 0v-53.2h5.4v53.2zm14.28 0v-53.2h5.52v53.2zm14.4 0v-53.2h5.4v53.2zm14.28 0v-53.2h5.4v53.2zm14.28 0v-53.2h5.52v53.2z" stroke="#000" stroke-opacity="0" fill="#d45b07"/><path d="M1616 141.62v174.76" stroke="#3a414a" stroke-width="3" fill="none"/><path d="M1616 125.85l4.63 14.27h-9.27zM1616 332.15l-4.63-14.27h9.27z" stroke="#3a414a" stroke-width="3" fill="#3a414a"/><path d="M1542 0a6 6 0 0 1 6-6h146a6 6 0 0 1 6 6v37a6 6 0 0 1-6 6h-146a6 6 0 0 1-6-6z" stroke="#000" stroke-opacity="0" fill="#fff" fill-opacity="0"/><use xlink:href="#i" transform="matrix(1,0,0,1,1547,-1) translate(6.851851851851862 27.326388888888886)"/><path d="M1536 409a6 6 0 0 1 6-6h140a6 6 0 0 1 6 6v72.67a6 6 0 0 1-6 6h-140a6 6 0 0 1-6-6z" stroke="#000" stroke-opacity="0" fill="#fff" fill-opacity="0"/><use xlink:href="#j" transform="matrix(1,0,0,1,1541,408) translate(6.314814814814824 43.638888888888886)"/><path d="M972 144h120v120H972V144z" stroke="#000" stroke-opacity="0" fill="url(#k)"/><path d="M1039.32 205.9c-.3 2.5-1.02 4.95-2.12 7.23l15.03 12.52c1.26-.63 2.68-1.03 4.17-1.03 5.12 0 9.37 4.18 9.37 9.37 0 5.2-4.25 9.36-9.37 9.36-5.2 0-9.44-4.17-9.44-9.37 0-2.3.86-4.42 2.28-6l-13.93-11.56c-4.24 6.06-11.25 10.07-19.2 10.07-12.9 0-23.46-10.53-23.46-23.44 0-12.9 10.55-23.46 23.46-23.46 8.42 0 15.82 4.56 20 11.33l13.14-10.94c-1.42-1.58-2.28-3.7-2.28-6 0-5.2 4.25-9.36 9.44-9.36 5.12 0 9.37 4.17 9.37 9.37 0 5.2-4.25 9.38-9.37 9.38-1.5 0-2.9-.4-4.17-1.03l-14.4 12.05c.94 2.36 1.5 4.96 1.65 7.7h13.3c.87-4.24 4.65-7.47 9.2-7.47 5.2 0 9.38 4.17 9.38 9.37 0 5.2-4.17 9.37-9.37 9.37-4.57 0-8.35-3.23-9.22-7.48zm-23.22 16.84c10.78 0 19.68-8.82 19.68-19.7 0-10.85-8.9-19.66-19.68-19.66-10.87 0-19.68 8.8-19.68 19.68 0 10.86 8.82 19.68 19.68 19.68zm40.3-54.32c-3.15 0-5.67 2.52-5.67 5.6 0 3.06 2.52 5.58 5.67 5.58 3.07 0 5.6-2.52 5.6-5.6 0-3.06-2.53-5.58-5.6-5.58zM1062 234c0-3.08-2.53-5.6-5.6-5.6-3.15 0-5.67 2.52-5.67 5.6 0 3.06 2.52 5.58 5.67 5.58 3.07 0 5.6-2.52 5.6-5.6zm0-35.6c-3.08 0-5.6 2.53-5.6 5.6s2.52 5.6 5.6 5.6c3.06 0 5.58-2.53 5.58-5.6s-2.52-5.6-5.6-5.6z" stroke="#000" stroke-opacity="0" fill="#fff"/><path d="M746-58h120V62H746V-58z" stroke="#000" stroke-opacity="0" fill="url(#l)"/><path d="M842.9 1.26c2.07 3.55 4.38 7.6 4.38 13.54 0 10-8.1 17.42-21.7 19.9-10 1.8-18.34 8.17-18.42 8.17-.33.25-.75.4-1.16.4-.4 0-.83-.16-1.16-.4-.08 0-8.42-6.36-18.4-8.18-13.63-2.48-21.72-9.9-21.72-19.9 0-5.95 2.3-10 4.38-13.54 1.8-3.06 3.3-5.7 3.3-9.25 0-7.6-5.86-12.37-5.86-12.46-.42-.24-.66-.74-.75-1.23 0-.5.08-.98.4-1.4.1-.08 9.67-11.72 11.9-14.7.32-.4.82-.74 1.4-.74.5-.08 1.07.17 1.48.58 3.55 3.88 7.85 5.95 11.9 5.95 4.53-.02 8.17-2 11.63-6.62.76-.9 2.24-.9 3 0 3.45 4.62 7.1 6.6 11.63 6.6 4.04 0 8.34-2.06 11.9-5.94.4-.4.98-.66 1.47-.58.58 0 1.08.33 1.4.75 2.23 2.98 11.8 14.62 11.9 14.7.32.42.4.9.4 1.4-.08.5-.32 1-.74 1.24 0 .1-5.86 4.96-5.86 12.47 0 3.56 1.5 6.2 3.3 9.26zm-18 29.72c4.38-.74 18.67-4.2 18.67-16.18 0-4.96-1.9-8.26-3.9-11.64C837.8-.06 835.8-3.44 835.8-8c0-6.84 3.88-11.8 5.95-14.02-2.15-2.65-6.94-8.5-9.5-11.8-4.04 3.62-8.58 5.6-13.12 5.6-5.12 0-9.33-1.98-13.13-6.27-3.8 4.3-8 6.28-13.13 6.28-4.54 0-9.08-1.98-13.12-5.6-2.56 3.3-7.35 9.15-9.5 11.8 2.15 2.22 5.95 7.18 5.95 14.03 0 4.55-2 7.94-3.88 11.16-2 3.38-3.9 6.68-3.9 11.64 0 11.97 14.3 15.44 18.67 16.18 8.75 1.57 16.18 6.2 18.9 8.1 2.72-1.9 10.15-6.53 18.9-8.1zM831.03-8c0 5.87 2.4 9.92 4.45 13.55 2 3.47 3.22 5.78 3.22 9.25 0 8.17-11.23 10.8-14.62 11.47-7.1 1.24-13.2 4.2-17.17 6.53-.24.16-.57.24-.9.24-.33 0-.66-.08-.9-.24-3.97-2.32-10.08-5.3-17.1-6.53-3.47-.66-14.7-3.3-14.7-11.47 0-3.47 1.25-5.78 3.23-9.25 2.06-3.63 4.45-7.68 4.45-13.54 0-4.53-1.32-8.9-3.8-12.87-.4-.74-.4-1.57.17-2.23.75-.9 1.5-1.8 2.23-2.8.58-.75 1.57-.9 2.4-.5 3.54 1.98 7.18 2.97 10.9 2.97 4.53 0 8.5-1.24 12.05-3.7.66-.43 1.48-.43 2.14 0 3.55 2.46 7.52 3.7 12.06 3.7 3.7 0 7.35-1 10.9-2.97.82-.4 1.8-.25 2.4.5.73.98 1.48 1.9 2.22 2.8.58.66.58 1.5.16 2.23-2.46 3.96-3.78 8.34-3.78 12.88zm-7.68 30.56c1.98-.33 11.64-2.3 11.64-7.76 0-2.56-.9-4.3-2.73-7.35-2.14-3.63-4.95-8.6-4.95-15.44 0-4.78 1.24-9.4 3.63-13.7-.16-.24-.33-.4-.5-.66-3.63 1.82-7.5 2.73-11.3 2.73-4.8 0-9.25-1.24-13.13-3.72-3.88 2.48-8.34 3.72-13.13 3.72-3.8 0-7.67-.9-11.3-2.73-.17.25-.34.42-.5.66 2.4 4.3 3.63 8.92 3.63 13.7 0 6.86-2.8 11.82-4.95 15.45-1.74 3.05-2.73 4.8-2.73 7.35 0 5.45 9.66 7.43 11.64 7.76C795.68 23.8 801.8 26.7 806 29c4.2-2.32 10.32-5.2 17.34-6.44zM818.7 3c1.1.98 1.58 2.3 1.58 4.04 0 1.8-.66 3.22-1.98 4.37-1.24 1.08-3.05 1.58-5.28 1.58-1.74 0-3.47-.33-5.2-1.07V9.7c2.06.66 3.8 1 5.2 1 1.4 0 2.56-.34 3.3-1 .74-.58 1.16-1.5 1.16-2.64 0-2.32-1.4-3.4-4.3-3.4-.9 0-1.8 0-2.64.1V1.9l5.86-6.44h-8.25v-2.23h11.3v2.14l-5.7 6.1H814.36c1.8 0 3.3.5 4.37 1.5zm-16.25-.5c1.16 1.07 1.73 2.55 1.73 4.37 0 1.82-.66 3.3-1.98 4.46-1.32 1.07-3.05 1.65-5.28 1.65-1.9 0-3.63-.33-5.28-1.07V9.7c2.06.66 3.8 1 5.28 1 1.4 0 2.48-.34 3.3-1 .74-.66 1.07-1.57 1.07-2.73 0-1.32-.34-2.3-1.08-2.9-.66-.65-1.82-.9-3.47-.9-1.15 0-2.56.1-4.3.25V1.6l.5-8.35h10.24v2.23h-7.85l-.4 5.7C796 1 796.9.92 797.74.92c1.98 0 3.54.5 4.7 1.56z" stroke="#000" stroke-opacity="0" fill="#fff"/><path d="M936 263.67a6 6 0 0 1 6-6h198a6 6 0 0 1 6 6V331a6 6 0 0 1-6 6H942a6 6 0 0 1-6-6z" stroke="#000" stroke-opacity="0" stroke-width="3" fill="#fff" fill-opacity="0"/><use xlink:href="#m" transform="matrix(1,0,0,1,941,262.6666666666667) translate(0.6944444444444429 40.611111111111114)"/><use xlink:href="#n" transform="matrix(1,0,0,1,941,262.6666666666667) translate(77.49074074074075 40.611111111111114)"/><path d="M732 75a6 6 0 0 1 6-6h92a6 6 0 0 1 6 6v40a6 6 0 0 1-6 6h-92a6 6 0 0 1-6-6z" stroke="#000" stroke-opacity="0" stroke-width="3" fill="#fff" fill-opacity="0"/><use xlink:href="#o" transform="matrix(1,0,0,1,737,74) translate(16.58641975308642 25.73611111111111)"/><path d="M296.8 245.2c9.84 6.12 15.96 17.28 15.96 29.04 0 1.56-1.2 2.76-2.76 2.76h-60c-1.56 0-2.76-1.2-2.76-2.76 0-14.64 9-27 21.6-31.8-5.4-3.6-8.88-9.6-8.88-16.44 0-11.04 9-19.92 20.04-19.92 11.16 0 20.16 8.88 20.16 19.92 0 6.84-3.48 12.84-8.88 16.44 1.92.72 3.72 1.68 5.52 2.76zm27.24-49.08c9.84 6.12 15.96 17.16 15.96 29.04 0 1.56-1.2 2.76-2.76 2.76h-30v-5.52h27.12c-.72-8.88-5.64-17.04-13.2-21.72-4.2-2.52-9-3.96-13.92-3.96-6.24 0-12.36 2.28-17.28 6.48l-3.6-4.08c3-2.52 6.24-4.44 9.72-5.76-5.4-3.6-8.88-9.6-8.88-16.44 0-11.04 9-19.92 20.16-19.92 11.04 0 20.04 8.88 20.04 19.92 0 6.84-3.48 12.84-8.88 16.44 1.92.72 3.84 1.68 5.52 2.76zm-71.28 26.28v5.52h-30c-1.56 0-2.76-1.2-2.76-2.76 0-14.64 9-27 21.6-31.8-5.4-3.6-9-9.6-9-16.44 0-11.04 9.12-19.92 20.16-19.92 11.16 0 20.16 8.88 20.16 19.92 0 6.84-3.6 12.84-8.88 16.44 1.92.72 3.72 1.68 5.52 2.76 1.44.84 2.76 1.8 4.08 3l-3.6 4.08c-1.08-.96-2.16-1.68-3.36-2.52-4.2-2.52-9-3.96-13.92-3.96-14.16 0-25.8 11.28-27.12 25.68zm.12 49.2h54.24c-.84-9-5.76-17.16-13.2-21.84-4.2-2.52-9-3.96-13.92-3.96-14.16 0-25.8 11.28-27.12 25.8zm-14.76-94.68c0 7.92 6.6 14.4 14.64 14.4 8.16 0 14.64-6.48 14.64-14.4 0-8.04-6.48-14.52-14.64-14.52-8.04 0-14.64 6.48-14.64 14.52zm54.48 0c0 7.92 6.6 14.4 14.76 14.4 8.04 0 14.64-6.48 14.64-14.4 0-8.04-6.6-14.52-14.64-14.52-8.16 0-14.76 6.48-14.76 14.52zM265.36 226c0 7.92 6.6 14.4 14.64 14.4 8.16 0 14.76-6.48 14.76-14.4 0-8.04-6.6-14.4-14.76-14.4-8.04 0-14.64 6.36-14.64 14.4z" stroke="#000" stroke-opacity="0" fill="#242f3e"/><path d="M247.64 270.13l.35-2.65.1-.92 4.64-38.75-31.1-2.53 7.32-21.56 17.17-10.95-11.03-14.3 5.1-14.18 11.6-5.07 15.33 7.03 3.6 12.57-9.86 15 12.76 5.18 12.88.12 12.66-6-9.05-12.8 4.07-15.92 15.2-4.6 13.46 8.76 1.86 13.6-9.4 10.96 17.05 13.38 5.33 18.8-30.28 2.53 4.87 40.72-1.62 6h-62.2z" stroke="#000" stroke-opacity="0" fill-opacity="0"/><use xlink:href="#p" transform="matrix(1,0,0,1,190,286) translate(66.55 14.4)"/><path d="M746 415h120v120H746V415z" stroke="#000" stroke-opacity="0" fill="url(#q)"/><path d="M847.28 446.86v58.2c0 1-.83 1.86-1.9 1.86h-78.76c-1.07 0-1.9-.87-1.9-1.86v-58.2c0-1 .83-1.86 1.9-1.86h78.76c1.07 0 1.9.87 1.9 1.86zm-78.85 56.28h75.14v-54.36h-75.14zm4.38-4.27c-.4-.37-.57-.87-.57-1.36v-22.47c0-1.05.83-1.86 1.9-1.86h1.82v-9.4c0-5.83 7.26-9.36 13.13-9.36h.08c2.9 0 6.77.88 9.08 2.43 2.56 1.8 4.04 4.2 4.04 6.93v9.4h1.82c.5 0 1 .2 1.32.57.42.3.58.8.58 1.3v22.48c0 1.06-.83 1.93-1.9 1.93h-29.97c-.5 0-1-.25-1.32-.56zm3.15-3.22h26.25v-3.7h-5.6v-3.8h5.6l.08-3.77h-5.7v-3.7h5.7v-3.8h-26.33zm3.8-22.48h18.74v-9.4c0-1.93-1.5-3.23-2.4-3.85-1.66-1.1-4.8-1.8-6.94-1.8h-.08c-3.97 0-9.33 2.3-9.33 5.64zm31.86 15v-3.8h22.55v3.8zm-17.82-2.8c0 1.86-1.15 3.53-2.8 4.27v4.15h-3.72v-4.16c-1.65-.74-2.8-2.4-2.8-4.27 0-2.6 2.06-4.7 4.62-4.7 2.64 0 4.7 2.1 4.7 4.7zm17.83-14.12v-3.7h16.94v3.7zm0 9.42v-3.78h11.32v3.77zm18.75 0v-3.78h7.52v3.77zm3.8-9.42v-3.7h3.72v3.7zm-45.98 14.12c0 .5.4.93.9.93.58 0 1-.43 1-.93 0-.56-.42-1-1-1-.5 0-.9.44-.9 1z" stroke="#000" stroke-opacity="0" fill="#fff"/><use xlink:href="#r" transform="matrix(1,0,0,1,716,544) translate(20.875 14.4)"/><use xlink:href="#s" transform="matrix(1,0,0,1,716,544) translate(66.175 14.4)"/><use xlink:href="#t" transform="matrix(1,0,0,1,716,544) translate(129.125 14.4)"/><use xlink:href="#u" transform="matrix(1,0,0,1,716,544) translate(6.049999999999997 36)"/><use xlink:href="#v" transform="matrix(1,0,0,1,716,544) translate(69.05 36)"/><path d="M1258 878h120v120h-120V878z" stroke="#000" stroke-opacity="0" fill="url(#w)"/><path d="M1338.8 954.76c0 .4-.07.74-.07 1.07v11.23c0 6.77-12.22 12.22-27.16 12.22-12.97 0-26.07-3.55-27.15-10.32h-.14v-60.68c0-7.5 14.05-11.56 27.3-11.56 7.36 0 14.45 1.24 19.45 3.3l-1.42 3.47c-4.5-1.9-11.13-2.98-18.03-2.98-14.6 0-23.5 4.54-23.5 7.76 0 3.22 8.9 7.76 23.5 7.76h1.07l.15 3.7c-.4.1-.82.1-1.23.1-9.05 0-18.5-1.9-23.5-5.54v8.26c0 1 .87 2.15 2.5 3.22 3.78 2.4 10.47 4.05 17.9 4.38l-.14 3.8c-7.77-.34-14.52-2-18.9-4.55-.62.6-1.37 2-1.37 2.74 0 3.3 8.92 7.76 23.5 7.76 1.37 0 2.72 0 4.07-.08l.27 3.7c-1.42.18-2.9.18-4.33.18-9.05 0-18.5-1.9-23.5-5.45v6.85c0 1.07.87 2.23 2.5 3.3 4.25 2.73 12.3 4.46 21 4.46h.6v3.8h-.6c-8.98 0-18.5-1.9-23.5-4.8-.4.42-.28 1.08-.14 1.83.07.4.13.73.13 1.06 0 3.3 8.92 7.76 23.5 7.76 14.54 0 23.53-4.46 23.53-7.76 0-1.07-1.16-2.15-2.1-2.9-.75.5-1.56.92-2.58 1.33l-1.4-3.48c1-.4 1.88-.9 2.55-1.32 2.03-1.4 3.38-3.38 3.38-4.13h3.78c0 1.82-1.2 3.72-2.7 5.2 2.23 2 2.77 3.97 2.77 5.3zm12.5-29.97l-33.78 34.1c-.34.4-.88.57-1.35.57-.34 0-.68-.1-.95-.25-.74-.5-1.08-1.4-.8-2.23l8.57-25.93h-8.72c-.6 0-1.22-.34-1.56-.9-.34-.6-.4-1.25-.13-1.83l9.38-20.9c.34-.65.94-1.06 1.7-1.06h20.66c.6 0 1.22.33 1.56.83.33.5.4 1.16.2 1.74l-4.66 12.63h8.5c.75 0 1.5.4 1.76 1.16.27.66.14 1.48-.4 2.06zm-5.88.57h-6.7c-.66 0-1.2-.33-1.54-.83-.34-.5-.47-1.15-.2-1.73l4.66-12.62h-16.76l-7.63 17.1h8.3c.62 0 1.16.24 1.56.73.35.5.42 1.17.22 1.74l-6.83 20.8zm-10.47 35.58c-5.07 3.55-14.46 5.37-23.38 5.37-9.05 0-18.5-1.9-23.5-5.45v7.1c0 3.14 8.9 7.5 23.5 7.5 14.06 0 23.38-5.02 23.38-8.4zm-44.8-37.73l1.76-3.38c1.23.66 2.78 1.24 4.47 1.8l-1 3.65c-1.97-.6-3.73-1.33-5.2-2.08zm0 45.5l1.76-3.3c1.23.65 2.78 1.23 4.47 1.72l-1 3.64c-1.97-.58-3.73-1.24-5.2-2.07zm5.2-20.73c-1.95-.6-3.7-1.25-5.2-2l1.76-3.38c1.23.66 2.78 1.24 4.47 1.74z" stroke="#000" stroke-opacity="0" fill="#fff"/><use xlink:href="#x" transform="matrix(1,0,0,1,1228,1007) translate(8.599999999999994 14.4)"/><use xlink:href="#y" transform="matrix(1,0,0,1,1228,1007) translate(79.55 14.4)"/><path d="M1822 878h120v120h-120V878z" stroke="#fff" stroke-opacity="0" fill="#d6242d"/><path d="M1882.16 974.37c-6.4 0-11.8-1.4-17.4-4.52l1.58-2.77c10.76 5.9 22.78 5.54 33.22-.87 15.6-9.53 20.4-29.93 10.84-45.52l-1.58 8.02-3.17-.66 2.3-11.66c.15-.87 1.02-1.38 1.9-1.23l11.7 2.33-.63 3.2-7.83-1.6c10.43 17.12 5.05 39.48-12.04 49.97-6 3.64-11.94 5.32-18.9 5.32zm-27.7-14c-.15.1-.3.1-.38 0l-11.63-2.9.8-3.06 7.42 1.9c-10.12-17.33-4.27-39.55 13.06-49.68 11.4-6.63 24.2-6.77 35.75-.5l-1.58 2.83c-10.6-5.75-22.47-5.53-32.83.73-15.66 9.4-20.72 29.72-11.3 45.38l2.05-8.23 3.08.73-2.93 11.58c-.15.73-.8 1.24-1.5 1.24zm40.36-6.84c-2.93 0-5.46-1.96-6.17-4.8h-13.22c-.87 3.42-4.35 5.46-7.75 4.6-3.48-.9-5.54-4.38-4.66-7.8.8-2.85 3.24-4.82 6.24-4.82.56 0 1.1.1 1.66.23l6.73-11.58c-2.53-2.4-2.7-6.48-.24-9.03 2.46-2.55 6.5-2.7 9.03-.22 2.6 2.4 2.7 6.4.24 9.03l-.24.22 6.72 11.58c.56-.14 1.1-.22 1.66-.22h.02c3.56 0 6.4 2.85 6.4 6.42 0 3.5-2.85 6.4-6.4 6.4zm0-9.6c-1.74 0-3.17 1.45-3.17 3.2 0 1.74 1.42 3.2 3.16 3.2 1.83 0 3.26-1.46 3.26-3.2 0-1.75-1.43-3.2-3.24-3.2zm-25.56 0c-1.82 0-3.24 1.45-3.24 3.2 0 1.74 1.42 3.2 3.24 3.2 1.75 0 3.17-1.46 3.17-3.2 0-1.75-1.42-3.2-3.17-3.2zm6.17 1.6h13.2c.33-1.17.88-2.12 1.75-3l-6.72-11.65c-1.1.3-2.13.3-3.24 0l-6.65 11.65c.87.88 1.35 1.83 1.66 3zm6.57-23.97c-1.74 0-3.16 1.38-3.16 3.13 0 1.8 1.42 3.2 3.16 3.2 1.82 0 3.24-1.4 3.24-3.2 0-1.76-1.42-3.14-3.24-3.14z" stroke="#fff" stroke-opacity="0" fill="#fff"/><use xlink:href="#z" transform="matrix(1,0,0,1,1792,1007) translate(57.660493827160494 23.11111111111111)"/><use xlink:href="#A" transform="matrix(1,0,0,1,1792,1007) translate(32.22222222222222 57.77777777777777)"/><path d="M1561 865.5h120v120h-120v-120z" stroke="#fff" stroke-opacity="0" stroke-width="2" fill="#3b48cc"/><path d="M1638.53 910.66c0-4.62-9.1-6.78-17.6-6.78-8.5 0-17.6 2.16-17.6 6.78 0 .26.02.44.06.7v28.85c-.08 4.85 9.06 6.88 17.6 6.88 8.57 0 17.6-2.12 17.6-6.74v-29.68zm-17.57-3.58c9.3 0 14.4 2.55 14.4 3.58 0 1.04-5.05 3.6-14.4 3.6-9.38 0-14.4-2.52-14.4-3.6 0-1.03 5.05-3.58 14.4-3.58zm14.4 33.26c0 1.04-5.05 3.54-14.4 3.54-9.35 0-14.4-2.5-14.4-3.54v-5.05c3.36 1.85 9.04 2.7 14.4 2.7 5.36 0 10.97-.86 14.4-2.67zm0-9.1c0 1.02-5.05 3.57-14.4 3.57-9.38 0-14.4-2.54-14.4-3.57h.04v-6.1c3.4 1.82 9.03 2.68 14.4 2.68 5.36 0 10.97-.85 14.4-2.62zm0-10.2c0 1.03-5.05 3.62-14.4 3.62-9.38 0-14.4-2.6-14.4-3.63h.04v-6.22c3.42 1.83 9 2.65 14.4 2.65s11.07-.87 14.4-2.73zM1586.46 962.32H1597v3.2h-14.4c-.88 0-1.6-.72-1.6-1.6v-14.4h3.2V960l12-11.98 2.24 2.25zM1661 949.5v14.4c0 .9-.7 1.6-1.6 1.6H1645v-3.2h10.54l-11.82-11.83 2.26-2.25 11.82 11.8v-10.5zM1661 887.12v14.4h-3.2v-10.57l-11.82 11.83-2.26-2.26 11.8-11.8H1645v-3.2h14.4c.9 0 1.6.7 1.6 1.6zM1598.44 900.7l-2.23 2.24-12-12v10.55h-3.2v-14.4c0-.9.7-1.62 1.6-1.62h14.4v3.2h-10.54zM1596.46 939.83c-9.78-3.5-15.38-8.9-15.38-14.73 0-5.84 5.6-11.2 15.38-14.74l1.08 3c-8.3 3-13.27 7.38-13.27 11.74s4.98 8.72 13.27 11.73zM1644.65 940.18l-1.03-3.04c8.88-3 14.18-7.5 14.18-12.04 0-4.56-5.3-9.06-14.18-12.07l1.03-3.02c10.4 3.5 16.35 9.03 16.35 15.1 0 6.06-5.96 11.55-16.35 15.08z" stroke="#fff" stroke-opacity="0" stroke-width="2" fill="#fff"/><use xlink:href="#B" transform="matrix(1,0,0,1,1531,994.4970837365254) translate(2.6512345679012412 23.11111111111111)"/><use xlink:href="#C" transform="matrix(1,0,0,1,1531,994.4970837365254) translate(116.52160493827161 23.11111111111111)"/><path d="M2536.9 996.55c.45.73 1.05 1.16 1.8 1.16.44.15 1.03.3 1.63.3.74-.3 1.34-.58 2.08-1 .46-.6.76-1.17 1.05-1.9l5.06-19.87 23.07-93.96c.14-.43.44-.87.6-1 .44-.6.88-.74 1.33-.74.74 0 1.2.14 1.34.73.44.14.9.58 1.04 1l2.38 7.26c1.04 2.6 2.38 4.8 4.46 6.53 1.64 1.88 4.02 3.33 6.4 4.06l21.72 6.1c1.93.72 4 2.17 5.35 4.06 1.33 1.74 2.37 3.9 2.67 6.1 0 2.9-.45 5.64-1.34 8.4-1.04 2.32-2.53 4.5-4.3 6.52l-5.52 5.08c-4.3 3.9-7.42 9.42-8.76 15.22-1.64 5.8-1.34 12.33.6 18.13l8.92 26.4c.15.73.44 1.3 1.04 1.88.45.44.9.73 1.64.73.44.15 1.04.3 1.63.3.74 0 1.34-.3 1.8-.73 11.14-8.7 19.92-21.02 24.98-34.8 5.05-13.77 6.4-29 4-43.8-2.66-15.65-9.36-30.15-19.92-41.75-10.4-11.16-24.1-19.14-38.53-22.48-10.26-2.17-20.67-1.74-30.94.44-10.1 2.46-19.63 6.82-27.96 13.34-8.48 6.96-15.32 15.23-20.68 24.65-5.06 9.86-8.48 20.3-9.52 31.6 0 .88.15 1.75.3 2.48.3 1 .74 1.88 1.34 2.6.74.44 1.34.88 2.08 1.46.9.15 1.78.15 2.68 0 2.97-.28 5.95 0 8.77 1.02 2.83 1.16 5.2 2.76 7.6 4.8 1.92 2.16 3.7 4.63 5.05 7.53 1.04 2.9 1.63 6.1 1.63 9.42v11.6c0 11.6 4.02 22.48 11.46 31.18z" stroke="#000" stroke-opacity="0" stroke-width="3.75" fill="#54c45e"/><path d="M2588.08 920.86c3.72 0 6.84-3.34 6.84-7.25 0-4.05-3.12-7.24-6.84-7.24-3.72 0-6.7 3.2-6.7 7.25 0 3.92 2.98 7.26 6.7 7.26z" stroke="#000" stroke-opacity="0" stroke-width="3.75" fill="#54c45e"/><path d="M1093.5 204H1204a6 6 0 0 0 6-6V88a6 6 0 0 1 6-6h319.38" stroke="#3a414a" stroke-width="3" fill="none"/><path d="M1093.54 205.5H1092v-3h1.54z" stroke="#3a414a" stroke-width=".05" fill="#3a414a"/><path d="M1551.15 82l-14.27 4.64v-9.28z" stroke="#3a414a" stroke-width="3" fill="#3a414a"/><path d="M1093.5 204H1206a6 6 0 0 1 6 6v160a6 6 0 0 0 6 6h317.38" stroke="#3a414a" stroke-width="3" fill="none"/><path d="M1093.54 205.5H1092v-3h1.54z" stroke="#3a414a" stroke-width=".05" fill="#3a414a"/><path d="M1551.15 376l-14.27 4.63v-9.26z" stroke="#3a414a" stroke-width="3" fill="#3a414a"/><path d="M1258 384a6 6 0 0 1 6-6h228a6 6 0 0 1 6 6v48a6 6 0 0 1-6 6h-228a6 6 0 0 1-6-6z" stroke="#000" stroke-opacity="0" stroke-width="3" fill="#fff" fill-opacity="0"/><use xlink:href="#D" transform="matrix(1,0,0,1,1263,383) translate(0.6481481481481381 29.36111111111111)"/><path d="M1258 32a6 6 0 0 1 6-6h228a6 6 0 0 1 6 6v48a6 6 0 0 1-6 6h-228a6 6 0 0 1-6-6z" stroke="#000" stroke-opacity="0" stroke-width="3" fill="#fff" fill-opacity="0"/><use xlink:href="#E" transform="matrix(1,0,0,1,1263,31) translate(-4.126543209876559 30.77777777777778)"/><path d="M1536 189.62a6 6 0 0 1 6-6h124a6 6 0 0 1 6 6v30a6 6 0 0 1-6 6h-124a6 6 0 0 1-6-6z" stroke="#000" stroke-opacity="0" stroke-width="3" fill="#fff" fill-opacity="0"/><use xlink:href="#F" transform="matrix(1,0,0,1,1541,188.6212167706816) translate(6.064814814814824 25.11111111111111)"/><use xlink:href="#G" transform="matrix(1,0,0,1,1541,188.6212167706816) translate(73.39197530864197 25.11111111111111)"/><path d="M1612 508.3v16.02m0 16.02v32.06m0 16.03v32.05m0 16.03v32.07m0 16.03v32.05m0 16.03v32.06m0 16.02v32.06m0 16.03v16.03" stroke="#008573" stroke-width="3" fill="none"/><path d="M1612 492.52l4.63 14.27h-9.27zM1612 860.64l-4.63-14.26h9.27z" stroke="#008573" stroke-width="3" fill="#008573"/><path d="M1318 999.5v54.5a6 6 0 0 0 6 6h452a6 6 0 0 0 6-6V944a6 6 0 0 1 6-6h13.38" stroke="#635dff" stroke-width="3" fill="none"/><path d="M1319.5 999.54h-3V998h3z" stroke="#635dff" stroke-width=".05" fill="#635dff"/><path d="M1817.15 938l-14.27 4.63v-9.26z" stroke="#635dff" stroke-width="3" fill="#635dff"/><path d="M1559.5 925.5H1518a6 6 0 0 0-6 6V1036a6 6 0 0 0 6 6h226a6 6 0 0 0 6-6V914a6 6 0 0 1 6-6h45.38" stroke="#2e27ad" stroke-width="3" fill="none"/><path d="M1561 927h-1.54v-3h1.54z" stroke="#2e27ad" stroke-width=".05" fill="#2e27ad"/><path d="M1817.15 908l-14.27 4.63v-9.26z" stroke="#2e27ad" stroke-width="3" fill="#2e27ad"/><path d="M1660 773c0 22.1-17.9 40-40 40s-40-17.9-40-40 17.9-40 40-40 40 17.9 40 40z" stroke="#f4d9ff" stroke-width="3" fill="#ff8f8f"/><path d="M1620 730v-10.84m0-10.83V697.5l.07-.95.22-.9.35-.88.5-.8.6-.72.72-.6.8-.5.88-.36.9-.23.95-.08h14.9m14.9 0h29.78m14.9 0h29.78m14.9 0h29.8m14.88 0h29.8m14.9 0h29.78m14.9 0H1909m14.9 0h29.8m14.88 0h29.8m14.9 0h29.78m14.9 0h29.78m14.9 0h29.8m14.88 0h29.8m14.9 0h29.78m14.9 0h29.78m14.9 0h29.78m14.9 0h29.8m14.88 0h29.8m14.9 0h29.78m14.9 0h29.78m14.9 0h29.8m14.88 0h14.9l.93.07.93.22.87.35.8.5.72.6.6.72.5.8.36.87.22.9.08.95v15m0 15.02v30.03m0 15v30.04m0 15v15.02" stroke="#008573" stroke-width="3" fill="none"/><path d="M1621.5 731.6l-1.48-.1-1.52.05v-1.6h3z" stroke="#008573" stroke-width=".05" fill="#008573"/><path d="M2570.38 848.4l-4.64-14.28h9.27z" stroke="#008573" stroke-width="3" fill="#008573"/><path d="M1882 876.5v-14.6m0-14.6v-29.2m0-14.6v-29.2m0-14.62v-29.2m0-14.6v-29.2m0-14.6v-29.2m0-14.6v-29.2m0-14.62v-29.2m0-14.6v-29.2m0-14.6v-29.2m0-14.6v-29.22m0-14.6v-29.2m0-14.6v-29.2m0-14.6v-29.2m0-14.62v-29.2m0-14.6v-29.2m0-14.6V161m0-14.6V117.2m0-14.6V88l-.07-.94-.22-.9-.35-.88-.5-.8-.6-.72-.72-.6-.8-.5-.88-.37-.9-.23-.95-.07h-14.95m-14.95 0h-29.9m-14.94 0h-29.9m-14.95 0h-29.88m-14.95 0h-14.95" stroke="#e81313" stroke-width="3" fill="none"/><path d="M1883.5 878h-3v-1.54h3z" stroke="#e81313" stroke-width=".05" fill="#e81313"/><path d="M1680.85 82l14.27-4.64v9.28z" stroke="#e81313" stroke-width="3" fill="#e81313"/><path d="M2434 1036a6 6 0 0 1 6-6h228a6 6 0 0 1 6 6v48a6 6 0 0 1-6 6h-228a6 6 0 0 1-6-6z" stroke="#000" stroke-opacity="0" stroke-width="3" fill="#fff" fill-opacity="0"/><use xlink:href="#H" transform="matrix(1,0,0,1,2439,1035.0000000000389) translate(2.73456790123457 29.36111111111111)"/><use xlink:href="#I" transform="matrix(1,0,0,1,2439,1035.0000000000389) translate(156.80864197530866 29.36111111111111)"/><path d="M744.5-46H286a6 6 0 0 0-6 6v218.42" stroke="#3a414a" stroke-width="3" fill="none"/><path d="M746-44.5h-1.54v-3H746z" stroke="#3a414a" stroke-width=".05" fill="#3a414a"/><path d="M280 194.18l-4.63-14.26h9.26z" stroke="#3a414a" stroke-width="3" fill="#3a414a"/><path d="M340.4 217h15.5a6 6 0 0 0 6-6V8a6 6 0 0 1 6-6h357.48" stroke="#3a414a" stroke-width="3" fill="none"/><path d="M340.43 218.5h-1.17l-.74-3h1.9z" stroke="#3a414a" stroke-width=".05" fill="#3a414a"/><path d="M741.15 2l-14.27 4.63v-9.27z" stroke="#3a414a" stroke-width="3" fill="#3a414a"/><path d="M340.4 217h610.98" stroke="#3a414a" stroke-width="3" fill="none"/><path d="M340.43 218.5h-1.17l-.74-3h1.9z" stroke="#3a414a" stroke-width=".05" fill="#3a414a"/><path d="M967.15 217l-14.27 4.63v-9.26z" stroke="#3a414a" stroke-width="3" fill="#3a414a"/><path d="M417.33 15a6 6 0 0 1 6-6h228a6 6 0 0 1 6 6v48a6 6 0 0 1-6 6h-228a6 6 0 0 1-6-6z" stroke="#000" stroke-opacity="0" stroke-width="3" fill="#fff" fill-opacity="0"/><g><use xlink:href="#J" transform="matrix(1,0,0,1,422.33333333341113,14) translate(11.712962962963005 32.91666666666666)"/></g><path d="M373.33-82a6 6 0 0 1 6-6h228a6 6 0 0 1 6 6v48a6 6 0 0 1-6 6h-228a6 6 0 0 1-6-6z" stroke="#000" stroke-opacity="0" stroke-width="3" fill="#fff" fill-opacity="0"/><g><use xlink:href="#K" transform="matrix(1,0,0,1,378.33333333341113,-83) translate(50.185185185185205 31.138888888888886)"/></g><path d="M493 180.62a6 6 0 0 1 6-6h228a6 6 0 0 1 6 6v48a6 6 0 0 1-6 6H499a6 6 0 0 1-6-6z" stroke="#000" stroke-opacity="0" stroke-width="3" fill="#fff" fill-opacity="0"/><g><use xlink:href="#K" transform="matrix(1,0,0,1,498,179.6212167707272) translate(50.185185185185205 31.138888888888886)"/></g><path d="M280 278.5v5.95m0 11.9v11.92m0 11.9v11.9m0 11.9v11.92m0 11.9v11.9m0 11.9v11.92m0 11.9v11.9m0 11.9v11.92m0 11.9V469l.07.94.22.9.35.88.5.8.6.72.72.6.8.5.88.37.9.23.95.07h6.1m12.2 0h12.2m12.22 0h12.2m12.2 0h12.2m12.22 0h12.2m12.2 0h12.2m12.22 0h12.2m12.2 0h12.2m12.22 0h12.2m12.2 0h12.2m12.22 0h12.2m12.2 0h12.2m12.22 0h12.2m12.2 0h12.2m12.22 0h12.2m12.2 0h12.2m12.22 0h12.2m12.2 0h12.2m12.22 0h6.1" stroke="#cc4e00" stroke-width="3" fill="none"/><path d="M281.5 278.54h-3V277h3z" stroke="#cc4e00" stroke-width=".05" fill="#cc4e00"/><path d="M741.15 475l-14.27 4.63v-9.26z" stroke="#cc4e00" stroke-width="3" fill="#cc4e00"/><path d="M867.5 475h6.03m12.05 0h12.05m12.06 0h12.04m12.05 0h12.05m12.05 0h12.06m12.05 0h12.06m12.06 0h12.05m12.05 0h12.06m12.05 0h12.05m12.06 0h12.05m12.05 0h12.05m12.05 0h12.05m12.06 0h12.05m12.07 0h12.05m12.05 0h6.03l.94-.07.9-.22.88-.35.8-.5.72-.6.6-.72.5-.8.37-.88.23-.9.07-.95v-5.44m0-10.87v-10.9m0-10.86v-10.88m0-10.87v-10.9m0-10.86V382l.07-.94.22-.9.35-.88.5-.8.6-.72.72-.6.8-.5.88-.37.9-.23.95-.07h6.12m12.25 0h12.24m12.26 0h12.24m12.25 0h12.25m12.24 0h12.25m12.23 0h12.25m12.24 0h12.25m12.24 0h12.26m12.24 0h12.25m12.24 0h12.24m12.25 0h12.23m12.25 0h12.24m12.25 0H1517m12.26 0h6.12" stroke="#e81313" stroke-width="3" fill="none"/><path d="M867.54 476.5H866v-3h1.54z" stroke="#e81313" stroke-width=".05" fill="#e81313"/><path d="M1551.15 376l-14.27 4.63v-9.26z" stroke="#e81313" stroke-width="3" fill="#e81313"/><defs><path fill="#232f3e" d="M205 0l-28-72H64L36 0H1l101-248h38L239 0h-34zm-38-99l-47-123c-12 45-31 82-46 123h93" id="L"/><path fill="#232f3e" d="M266 0h-40l-56-210L115 0H75L2-248h35L96-30l15-64 43-154h32l59 218 59-218h35" id="M"/><path fill="#232f3e" d="M185-189c-5-48-123-54-124 2 14 75 158 14 163 119 3 78-121 87-175 55-17-10-28-26-33-46l33-7c5 56 141 63 141-1 0-78-155-14-162-118-5-82 145-84 179-34 5 7 8 16 11 25" id="N"/><g id="a"><use transform="matrix(0.07469135802469135,0,0,0.07469135802469135,0,0)" xlink:href="#L"/><use transform="matrix(0.07469135802469135,0,0,0.07469135802469135,16.954938271604938,0)" xlink:href="#M"/><use transform="matrix(0.07469135802469135,0,0,0.07469135802469135,42.2753086419753,0)" xlink:href="#N"/></g><path fill="#232f3e" d="M212-179c-10-28-35-45-73-45-59 0-87 40-87 99 0 60 29 101 89 101 43 0 62-24 78-52l27 14C228-24 195 4 139 4 59 4 22-46 18-125c-6-104 99-153 187-111 19 9 31 26 39 46" id="O"/><path fill="#232f3e" d="M24 0v-261h32V0H24" id="P"/><path fill="#232f3e" d="M100-194c62-1 85 37 85 99 1 63-27 99-86 99S16-35 15-95c0-66 28-99 85-99zM99-20c44 1 53-31 53-75 0-43-8-75-51-75s-53 32-53 75 10 74 51 75" id="Q"/><path fill="#232f3e" d="M84 4C-5 8 30-112 23-190h32v120c0 31 7 50 39 49 72-2 45-101 50-169h31l1 190h-30c-1-10 1-25-2-33-11 22-28 36-60 37" id="R"/><path fill="#232f3e" d="M85-194c31 0 48 13 60 33l-1-100h32l1 261h-30c-2-10 0-23-3-31C134-8 116 4 85 4 32 4 16-35 15-94c0-66 23-100 70-100zm9 24c-40 0-46 34-46 75 0 40 6 74 45 74 42 0 51-32 51-76 0-42-9-74-50-73" id="S"/><g id="b"><use transform="matrix(0.07469135802469135,0,0,0.07469135802469135,0,0)" xlink:href="#O"/><use transform="matrix(0.07469135802469135,0,0,0.07469135802469135,19.34506172839506,0)" xlink:href="#P"/><use transform="matrix(0.07469135802469135,0,0,0.07469135802469135,25.245679012345676,0)" xlink:href="#Q"/><use transform="matrix(0.07469135802469135,0,0,0.07469135802469135,40.18395061728394,0)" xlink:href="#R"/><use transform="matrix(0.07469135802469135,0,0,0.07469135802469135,55.122222222222206,0)" xlink:href="#S"/></g><path fill="#248814" d="M137 0h-34L2-248h35l83 218 83-218h36" id="T"/><path fill="#248814" d="M24-231v-30h32v30H24zM24 0v-190h32V0H24" id="U"/><path fill="#248814" d="M114-163C36-179 61-72 57 0H25l-1-190h30c1 12-1 29 2 39 6-27 23-49 58-41v29" id="V"/><path fill="#248814" d="M59-47c-2 24 18 29 38 22v24C64 9 27 4 27-40v-127H5v-23h24l9-43h21v43h35v23H59v120" id="W"/><path fill="#248814" d="M84 4C-5 8 30-112 23-190h32v120c0 31 7 50 39 49 72-2 45-101 50-169h31l1 190h-30c-1-10 1-25-2-33-11 22-28 36-60 37" id="X"/><path fill="#248814" d="M141-36C126-15 110 5 73 4 37 3 15-17 15-53c-1-64 63-63 125-63 3-35-9-54-41-54-24 1-41 7-42 31l-33-3c5-37 33-52 76-52 45 0 72 20 72 64v82c-1 20 7 32 28 27v20c-31 9-61-2-59-35zM48-53c0 20 12 33 32 33 41-3 63-29 60-74-43 2-92-5-92 41" id="Y"/><path fill="#248814" d="M24 0v-261h32V0H24" id="Z"/><g id="c"><use transform="matrix(0.05,0,0,0.05,0,0)" xlink:href="#T"/><use transform="matrix(0.05,0,0,0.05,11.65,0)" xlink:href="#U"/><use transform="matrix(0.05,0,0,0.05,15.600000000000001,0)" xlink:href="#V"/><use transform="matrix(0.05,0,0,0.05,21.55,0)" xlink:href="#W"/><use transform="matrix(0.05,0,0,0.05,26.55,0)" xlink:href="#X"/><use transform="matrix(0.05,0,0,0.05,36.55,0)" xlink:href="#Y"/><use transform="matrix(0.05,0,0,0.05,46.55,0)" xlink:href="#Z"/></g><path fill="#248814" d="M30-248c87 1 191-15 191 75 0 78-77 80-158 76V0H30v-248zm33 125c57 0 124 11 124-50 0-59-68-47-124-48v98" id="aa"/><path fill="#248814" d="M108 0H70L1-190h34L89-25l56-165h34" id="ab"/><path fill="#248814" d="M100-194c63 0 86 42 84 106H49c0 40 14 67 53 68 26 1 43-12 49-29l28 8c-11 28-37 45-77 45C44 4 14-33 15-96c1-61 26-98 85-98zm52 81c6-60-76-77-97-28-3 7-6 17-6 28h103" id="ac"/><g id="d"><use transform="matrix(0.05,0,0,0.05,0,0)" xlink:href="#aa"/><use transform="matrix(0.05,0,0,0.05,12,0)" xlink:href="#V"/><use transform="matrix(0.05,0,0,0.05,17.95,0)" xlink:href="#U"/><use transform="matrix(0.05,0,0,0.05,21.9,0)" xlink:href="#ab"/><use transform="matrix(0.05,0,0,0.05,30.899999999999995,0)" xlink:href="#Y"/><use transform="matrix(0.05,0,0,0.05,40.9,0)" xlink:href="#W"/><use transform="matrix(0.05,0,0,0.05,45.9,0)" xlink:href="#ac"/></g><path fill="#248814" d="M212-179c-10-28-35-45-73-45-59 0-87 40-87 99 0 60 29 101 89 101 43 0 62-24 78-52l27 14C228-24 195 4 139 4 59 4 22-46 18-125c-6-104 99-153 187-111 19 9 31 26 39 46" id="ad"/><path fill="#248814" d="M100-194c62-1 85 37 85 99 1 63-27 99-86 99S16-35 15-95c0-66 28-99 85-99zM99-20c44 1 53-31 53-75 0-43-8-75-51-75s-53 32-53 75 10 74 51 75" id="ae"/><path fill="#248814" d="M85-194c31 0 48 13 60 33l-1-100h32l1 261h-30c-2-10 0-23-3-31C134-8 116 4 85 4 32 4 16-35 15-94c0-66 23-100 70-100zm9 24c-40 0-46 34-46 75 0 40 6 74 45 74 42 0 51-32 51-76 0-42-9-74-50-73" id="af"/><g id="e"><use transform="matrix(0.05,0,0,0.05,0,0)" xlink:href="#ad"/><use transform="matrix(0.05,0,0,0.05,12.950000000000001,0)" xlink:href="#Z"/><use transform="matrix(0.05,0,0,0.05,16.900000000000002,0)" xlink:href="#ae"/><use transform="matrix(0.05,0,0,0.05,26.900000000000002,0)" xlink:href="#X"/><use transform="matrix(0.05,0,0,0.05,36.900000000000006,0)" xlink:href="#af"/></g><path fill="#d86613" d="M30 0v-248h187v28H63v79h144v27H63v87h162V0H30" id="ag"/><path fill="#d86613" d="M212-179c-10-28-35-45-73-45-59 0-87 40-87 99 0 60 29 101 89 101 43 0 62-24 78-52l27 14C228-24 195 4 139 4 59 4 22-46 18-125c-6-104 99-153 187-111 19 9 31 26 39 46" id="ah"/><path fill="#d86613" d="M185-189c-5-48-123-54-124 2 14 75 158 14 163 119 3 78-121 87-175 55-17-10-28-26-33-46l33-7c5 56 141 63 141-1 0-78-155-14-162-118-5-82 145-84 179-34 5 7 8 16 11 25" id="ai"/><g id="f"><use transform="matrix(0.05,0,0,0.05,0,0)" xlink:href="#ag"/><use transform="matrix(0.05,0,0,0.05,12,0)" xlink:href="#ah"/><use transform="matrix(0.05,0,0,0.05,24.950000000000003,0)" xlink:href="#ai"/></g><path fill="#d86613" d="M24 0v-261h32V0H24" id="aj"/><path fill="#d86613" d="M84 4C-5 8 30-112 23-190h32v120c0 31 7 50 39 49 72-2 45-101 50-169h31l1 190h-30c-1-10 1-25-2-33-11 22-28 36-60 37" id="ak"/><path fill="#d86613" d="M135-143c-3-34-86-38-87 0 15 53 115 12 119 90S17 21 10-45l28-5c4 36 97 45 98 0-10-56-113-15-118-90-4-57 82-63 122-42 12 7 21 19 24 35" id="al"/><path fill="#d86613" d="M59-47c-2 24 18 29 38 22v24C64 9 27 4 27-40v-127H5v-23h24l9-43h21v43h35v23H59v120" id="am"/><path fill="#d86613" d="M100-194c63 0 86 42 84 106H49c0 40 14 67 53 68 26 1 43-12 49-29l28 8c-11 28-37 45-77 45C44 4 14-33 15-96c1-61 26-98 85-98zm52 81c6-60-76-77-97-28-3 7-6 17-6 28h103" id="an"/><path fill="#d86613" d="M114-163C36-179 61-72 57 0H25l-1-190h30c1 12-1 29 2 39 6-27 23-49 58-41v29" id="ao"/><g id="g"><use transform="matrix(0.05,0,0,0.05,0,0)" xlink:href="#ah"/><use transform="matrix(0.05,0,0,0.05,12.950000000000001,0)" xlink:href="#aj"/><use transform="matrix(0.05,0,0,0.05,16.900000000000002,0)" xlink:href="#ak"/><use transform="matrix(0.05,0,0,0.05,26.900000000000002,0)" xlink:href="#al"/><use transform="matrix(0.05,0,0,0.05,35.900000000000006,0)" xlink:href="#am"/><use transform="matrix(0.05,0,0,0.05,40.900000000000006,0)" xlink:href="#an"/><use transform="matrix(0.05,0,0,0.05,50.900000000000006,0)" xlink:href="#ao"/></g><path fill="#d86613" d="M100-194c62-1 85 37 85 99 1 63-27 99-86 99S16-35 15-95c0-66 28-99 85-99zM99-20c44 1 53-31 53-75 0-43-8-75-51-75s-53 32-53 75 10 74 51 75" id="ap"/><path fill="#d86613" d="M117-194c89-4 53 116 60 194h-32v-121c0-31-8-49-39-48C34-167 62-67 57 0H25l-1-190h30c1 10-1 24 2 32 11-22 29-35 61-36" id="aq"/><path fill="#d86613" d="M141-36C126-15 110 5 73 4 37 3 15-17 15-53c-1-64 63-63 125-63 3-35-9-54-41-54-24 1-41 7-42 31l-33-3c5-37 33-52 76-52 45 0 72 20 72 64v82c-1 20 7 32 28 27v20c-31 9-61-2-59-35zM48-53c0 20 12 33 32 33 41-3 63-29 60-74-43 2-92-5-92 41" id="ar"/><path fill="#d86613" d="M24-231v-30h32v30H24zM24 0v-190h32V0H24" id="as"/><g id="h"><use transform="matrix(0.05,0,0,0.05,0,0)" xlink:href="#ah"/><use transform="matrix(0.05,0,0,0.05,12.950000000000001,0)" xlink:href="#ap"/><use transform="matrix(0.05,0,0,0.05,22.950000000000003,0)" xlink:href="#aq"/><use transform="matrix(0.05,0,0,0.05,32.95,0)" xlink:href="#am"/><use transform="matrix(0.05,0,0,0.05,37.95,0)" xlink:href="#ar"/><use transform="matrix(0.05,0,0,0.05,47.95,0)" xlink:href="#as"/><use transform="matrix(0.05,0,0,0.05,51.900000000000006,0)" xlink:href="#aq"/><use transform="matrix(0.05,0,0,0.05,61.900000000000006,0)" xlink:href="#an"/><use transform="matrix(0.05,0,0,0.05,71.9,0)" xlink:href="#ao"/></g><path fill="#3a414a" d="M76-208v77h127v40H76V0H24v-248h183v40H76" id="at"/><path fill="#3a414a" d="M135-150c-39-12-60 13-60 57V0H25l-1-190h47c2 13-1 29 3 40 6-28 27-53 61-41v41" id="au"/><path fill="#3a414a" d="M110-194c64 0 96 36 96 99 0 64-35 99-97 99-61 0-95-36-95-99 0-62 34-99 96-99zm-1 164c35 0 45-28 45-65 0-40-10-65-43-65-34 0-45 26-45 65 0 36 10 65 43 65" id="av"/><path fill="#3a414a" d="M135-194c87-1 58 113 63 194h-50c-7-57 23-157-34-157-59 0-34 97-39 157H25l-1-190h47c2 12-1 28 3 38 12-26 28-41 61-42" id="aw"/><path fill="#3a414a" d="M115-3C79 11 28 4 28-45v-112H4v-33h27l15-45h31v45h36v33H77v99c-1 23 16 31 38 25v30" id="ax"/><path fill="#3a414a" d="M185-48c-13 30-37 53-82 52C43 2 14-33 14-96s30-98 90-98c62 0 83 45 84 108H66c0 31 8 55 39 56 18 0 30-7 34-22zm-45-69c5-46-57-63-70-21-2 6-4 13-4 21h74" id="ay"/><path fill="#3a414a" d="M88-194c31-1 46 15 58 34l-1-101h50l1 261h-48c-2-10 0-23-3-31C134-8 116 4 84 4 32 4 16-41 15-95c0-56 19-97 73-99zm17 164c33 0 40-30 41-66 1-37-9-64-41-64s-38 30-39 65c0 43 13 65 39 65" id="az"/><g id="i"><use transform="matrix(0.08641975308641973,0,0,0.08641975308641973,0,0)" xlink:href="#at"/><use transform="matrix(0.08641975308641973,0,0,0.08641975308641973,18.92592592592592,0)" xlink:href="#au"/><use transform="matrix(0.08641975308641973,0,0,0.08641975308641973,31.024691358024686,0)" xlink:href="#av"/><use transform="matrix(0.08641975308641973,0,0,0.08641975308641973,49.950617283950606,0)" xlink:href="#aw"/><use transform="matrix(0.08641975308641973,0,0,0.08641975308641973,68.87654320987653,0)" xlink:href="#ax"/><use transform="matrix(0.08641975308641973,0,0,0.08641975308641973,79.16049382716048,0)" xlink:href="#ay"/><use transform="matrix(0.08641975308641973,0,0,0.08641975308641973,96.44444444444443,0)" xlink:href="#aw"/><use transform="matrix(0.08641975308641973,0,0,0.08641975308641973,115.37037037037035,0)" xlink:href="#az"/></g><path fill="#3a414a" d="M182-130c37 4 62 22 62 59C244 23 116-4 24 0v-248c84 5 203-23 205 63 0 31-19 50-47 55zM76-148c40-3 101 13 101-30 0-44-60-28-101-31v61zm0 110c48-3 116 14 116-37 0-48-69-32-116-35v72" id="aA"/><path fill="#3a414a" d="M133-34C117-15 103 5 69 4 32 3 11-16 11-54c-1-60 55-63 116-61 1-26-3-47-28-47-18 1-26 9-28 27l-52-2c7-38 36-58 82-57s74 22 75 68l1 82c-1 14 12 18 25 15v27c-30 8-71 5-69-32zm-48 3c29 0 43-24 42-57-32 0-66-3-65 30 0 17 8 27 23 27" id="aB"/><path fill="#3a414a" d="M190-63c-7 42-38 67-86 67-59 0-84-38-90-98-12-110 154-137 174-36l-49 2c-2-19-15-32-35-32-30 0-35 28-38 64-6 74 65 87 74 30" id="aC"/><path fill="#3a414a" d="M147 0L96-86 75-71V0H25v-261h50v150l67-79h53l-66 74L201 0h-54" id="aD"/><g id="j"><use transform="matrix(0.08641975308641973,0,0,0.08641975308641973,0,0)" xlink:href="#aA"/><use transform="matrix(0.08641975308641973,0,0,0.08641975308641973,22.38271604938271,0)" xlink:href="#aB"/><use transform="matrix(0.08641975308641973,0,0,0.08641975308641973,39.66666666666666,0)" xlink:href="#aC"/><use transform="matrix(0.08641975308641973,0,0,0.08641975308641973,56.950617283950606,0)" xlink:href="#aD"/><use transform="matrix(0.08641975308641973,0,0,0.08641975308641973,74.23456790123456,0)" xlink:href="#ay"/><use transform="matrix(0.08641975308641973,0,0,0.08641975308641973,91.5185185185185,0)" xlink:href="#aw"/><use transform="matrix(0.08641975308641973,0,0,0.08641975308641973,110.44444444444441,0)" xlink:href="#az"/></g><linearGradient gradientUnits="userSpaceOnUse" id="k" x1="972" y1="264" x2="1092" y2="144"><stop offset="0%" stop-color="#4d27a8"/><stop offset="100%" stop-color="#a166ff"/></linearGradient><linearGradient gradientUnits="userSpaceOnUse" id="l" x1="746" y1="62" x2="866" y2="-58"><stop offset="0%" stop-color="#4d27a8"/><stop offset="100%" stop-color="#a166ff"/></linearGradient><path fill="#3a414a" d="M24 0v-248h52v208h133V0H24" id="aE"/><g id="m"><use transform="matrix(0.08024691358024691,0,0,0.08024691358024691,0,0)" xlink:href="#aE"/><use transform="matrix(0.08024691358024691,0,0,0.08024691358024691,17.574074074074073,0)" xlink:href="#av"/><use transform="matrix(0.08024691358024691,0,0,0.08024691358024691,35.148148148148145,0)" xlink:href="#aB"/><use transform="matrix(0.08024691358024691,0,0,0.08024691358024691,51.197530864197525,0)" xlink:href="#az"/></g><path fill="#3a414a" d="M25 0v-261h50V0H25" id="aF"/><g id="n"><use transform="matrix(0.08024691358024691,0,0,0.08024691358024691,0,0)" xlink:href="#aA"/><use transform="matrix(0.08024691358024691,0,0,0.08024691358024691,20.78395061728395,0)" xlink:href="#aB"/><use transform="matrix(0.08024691358024691,0,0,0.08024691358024691,36.83333333333333,0)" xlink:href="#aF"/><use transform="matrix(0.08024691358024691,0,0,0.08024691358024691,44.858024691358025,0)" xlink:href="#aB"/><use transform="matrix(0.08024691358024691,0,0,0.08024691358024691,60.907407407407405,0)" xlink:href="#aw"/><use transform="matrix(0.08024691358024691,0,0,0.08024691358024691,78.48148148148148,0)" xlink:href="#aC"/><use transform="matrix(0.08024691358024691,0,0,0.08024691358024691,94.53086419753086,0)" xlink:href="#ay"/><use transform="matrix(0.08024691358024691,0,0,0.08024691358024691,110.58024691358024,0)" xlink:href="#au"/></g><path fill="#3a414a" d="M24-248c120-7 223 5 221 122C244-46 201 0 124 0H24v-248zM76-40c74 7 117-18 117-86 0-67-45-88-117-82v168" id="aG"/><path fill="#3a414a" d="M175 0L67-191c6 58 2 128 3 191H24v-248h59L193-55c-6-58-2-129-3-193h46V0h-61" id="aH"/><path fill="#3a414a" d="M169-182c-1-43-94-46-97-3 18 66 151 10 154 114 3 95-165 93-204 36-6-8-10-19-12-30l50-8c3 46 112 56 116 5-17-69-150-10-154-114-4-87 153-88 188-35 5 8 8 18 10 28" id="aI"/><g id="o"><use transform="matrix(0.08024691358024691,0,0,0.08024691358024691,0,0)" xlink:href="#aG"/><use transform="matrix(0.08024691358024691,0,0,0.08024691358024691,20.78395061728395,0)" xlink:href="#aH"/><use transform="matrix(0.08024691358024691,0,0,0.08024691358024691,41.5679012345679,0)" xlink:href="#aI"/></g><path d="M232-93c-1 65-40 97-104 97C67 4 28-28 28-90v-158h33c8 89-33 224 67 224 102 0 64-133 71-224h33v155" id="aJ"/><path d="M135-143c-3-34-86-38-87 0 15 53 115 12 119 90S17 21 10-45l28-5c4 36 97 45 98 0-10-56-113-15-118-90-4-57 82-63 122-42 12 7 21 19 24 35" id="aK"/><path d="M100-194c63 0 86 42 84 106H49c0 40 14 67 53 68 26 1 43-12 49-29l28 8c-11 28-37 45-77 45C44 4 14-33 15-96c1-61 26-98 85-98zm52 81c6-60-76-77-97-28-3 7-6 17-6 28h103" id="aL"/><path d="M114-163C36-179 61-72 57 0H25l-1-190h30c1 12-1 29 2 39 6-27 23-49 58-41v29" id="aM"/><g id="p"><use transform="matrix(0.05,0,0,0.05,0,0)" xlink:href="#aJ"/><use transform="matrix(0.05,0,0,0.05,12.950000000000001,0)" xlink:href="#aK"/><use transform="matrix(0.05,0,0,0.05,21.950000000000003,0)" xlink:href="#aL"/><use transform="matrix(0.05,0,0,0.05,31.950000000000003,0)" xlink:href="#aM"/><use transform="matrix(0.05,0,0,0.05,37.900000000000006,0)" xlink:href="#aK"/></g><linearGradient gradientUnits="userSpaceOnUse" id="q" x1="746" y1="535" x2="866" y2="415"><stop offset="0%" stop-color="#bd0816"/><stop offset="100%" stop-color="#ff5252"/></linearGradient><path d="M205 0l-28-72H64L36 0H1l101-248h38L239 0h-34zm-38-99l-47-123c-12 45-31 82-46 123h93" id="aN"/><path d="M266 0h-40l-56-210L115 0H75L2-248h35L96-30l15-64 43-154h32l59 218 59-218h35" id="aO"/><path d="M185-189c-5-48-123-54-124 2 14 75 158 14 163 119 3 78-121 87-175 55-17-10-28-26-33-46l33-7c5 56 141 63 141-1 0-78-155-14-162-118-5-82 145-84 179-34 5 7 8 16 11 25" id="aP"/><g id="r"><use transform="matrix(0.05,0,0,0.05,0,0)" xlink:href="#aN"/><use transform="matrix(0.05,0,0,0.05,11.35,0)" xlink:href="#aO"/><use transform="matrix(0.05,0,0,0.05,28.299999999999997,0)" xlink:href="#aP"/></g><path d="M33 0v-248h34V0H33" id="aQ"/><path d="M85-194c31 0 48 13 60 33l-1-100h32l1 261h-30c-2-10 0-23-3-31C134-8 116 4 85 4 32 4 16-35 15-94c0-66 23-100 70-100zm9 24c-40 0-46 34-46 75 0 40 6 74 45 74 42 0 51-32 51-76 0-42-9-74-50-73" id="aR"/><path d="M117-194c89-4 53 116 60 194h-32v-121c0-31-8-49-39-48C34-167 62-67 57 0H25l-1-190h30c1 10-1 24 2 32 11-22 29-35 61-36" id="aS"/><path d="M59-47c-2 24 18 29 38 22v24C64 9 27 4 27-40v-127H5v-23h24l9-43h21v43h35v23H59v120" id="aT"/><path d="M24-231v-30h32v30H24zM24 0v-190h32V0H24" id="aU"/><path d="M179-190L93 31C79 59 56 82 12 73V49c39 6 53-20 64-50L1-190h34L92-34l54-156h33" id="aV"/><g id="s"><use transform="matrix(0.05,0,0,0.05,0,0)" xlink:href="#aQ"/><use transform="matrix(0.05,0,0,0.05,5,0)" xlink:href="#aR"/><use transform="matrix(0.05,0,0,0.05,15,0)" xlink:href="#aL"/><use transform="matrix(0.05,0,0,0.05,25,0)" xlink:href="#aS"/><use transform="matrix(0.05,0,0,0.05,35,0)" xlink:href="#aT"/><use transform="matrix(0.05,0,0,0.05,40,0)" xlink:href="#aU"/><use transform="matrix(0.05,0,0,0.05,43.95,0)" xlink:href="#aT"/><use transform="matrix(0.05,0,0,0.05,48.95,0)" xlink:href="#aV"/></g><path d="M141-36C126-15 110 5 73 4 37 3 15-17 15-53c-1-64 63-63 125-63 3-35-9-54-41-54-24 1-41 7-42 31l-33-3c5-37 33-52 76-52 45 0 72 20 72 64v82c-1 20 7 32 28 27v20c-31 9-61-2-59-35zM48-53c0 20 12 33 32 33 41-3 63-29 60-74-43 2-92-5-92 41" id="aW"/><g id="t"><use transform="matrix(0.05,0,0,0.05,0,0)" xlink:href="#aW"/><use transform="matrix(0.05,0,0,0.05,10,0)" xlink:href="#aS"/><use transform="matrix(0.05,0,0,0.05,20,0)" xlink:href="#aR"/></g><path d="M96-169c-40 0-48 33-48 73s9 75 48 75c24 0 41-14 43-38l32 2c-6 37-31 61-74 61-59 0-76-41-82-99-10-93 101-131 147-64 4 7 5 14 7 22l-32 3c-4-21-16-35-41-35" id="aX"/><g id="u"><use transform="matrix(0.05,0,0,0.05,0,0)" xlink:href="#aN"/><use transform="matrix(0.05,0,0,0.05,12,0)" xlink:href="#aX"/><use transform="matrix(0.05,0,0,0.05,21,0)" xlink:href="#aX"/><use transform="matrix(0.05,0,0,0.05,30,0)" xlink:href="#aL"/><use transform="matrix(0.05,0,0,0.05,40,0)" xlink:href="#aK"/><use transform="matrix(0.05,0,0,0.05,49,0)" xlink:href="#aK"/></g><path d="M240 0l2-218c-23 76-54 145-80 218h-23L58-218 59 0H30v-248h44l77 211c21-75 51-140 76-211h43V0h-30" id="aY"/><path d="M177-190C167-65 218 103 67 71c-23-6-38-20-44-43l32-5c15 47 100 32 89-28v-30C133-14 115 1 83 1 29 1 15-40 15-95c0-56 16-97 71-98 29-1 48 16 59 35 1-10 0-23 2-32h30zM94-22c36 0 50-32 50-73 0-42-14-75-50-75-39 0-46 34-46 75s6 73 46 73" id="aZ"/><path d="M210-169c-67 3-38 105-44 169h-31v-121c0-29-5-50-35-48C34-165 62-65 56 0H25l-1-190h30c1 10-1 24 2 32 10-44 99-50 107 0 11-21 27-35 58-36 85-2 47 119 55 194h-31v-121c0-29-5-49-35-48" id="ba"/><g id="v"><use transform="matrix(0.05,0,0,0.05,0,0)" xlink:href="#aY"/><use transform="matrix(0.05,0,0,0.05,14.950000000000001,0)" xlink:href="#aW"/><use transform="matrix(0.05,0,0,0.05,24.950000000000003,0)" xlink:href="#aS"/><use transform="matrix(0.05,0,0,0.05,34.95,0)" xlink:href="#aW"/><use transform="matrix(0.05,0,0,0.05,44.95,0)" xlink:href="#aZ"/><use transform="matrix(0.05,0,0,0.05,54.95,0)" xlink:href="#aL"/><use transform="matrix(0.05,0,0,0.05,64.95,0)" xlink:href="#ba"/><use transform="matrix(0.05,0,0,0.05,79.9,0)" xlink:href="#aL"/><use transform="matrix(0.05,0,0,0.05,89.9,0)" xlink:href="#aS"/><use transform="matrix(0.05,0,0,0.05,99.9,0)" xlink:href="#aT"/></g><linearGradient gradientUnits="userSpaceOnUse" id="w" x1="1258" y1="998" x2="1378" y2="878"><stop offset="0%" stop-color="#2e27ad"/><stop offset="100%" stop-color="#527fff"/></linearGradient><path d="M9 0v-24l116-142H16v-24h144v24L44-24h123V0H9" id="bb"/><path d="M100-194c62-1 85 37 85 99 1 63-27 99-86 99S16-35 15-95c0-66 28-99 85-99zM99-20c44 1 53-31 53-75 0-43-8-75-51-75s-53 32-53 75 10 74 51 75" id="bc"/><g id="x"><use transform="matrix(0.05,0,0,0.05,0,0)" xlink:href="#aN"/><use transform="matrix(0.05,0,0,0.05,12,0)" xlink:href="#ba"/><use transform="matrix(0.05,0,0,0.05,26.950000000000003,0)" xlink:href="#aW"/><use transform="matrix(0.05,0,0,0.05,36.95,0)" xlink:href="#bb"/><use transform="matrix(0.05,0,0,0.05,45.95,0)" xlink:href="#bc"/><use transform="matrix(0.05,0,0,0.05,55.95,0)" xlink:href="#aS"/></g><path d="M30-248c118-7 216 8 213 122C240-48 200 0 122 0H30v-248zM63-27c89 8 146-16 146-99s-60-101-146-95v194" id="bd"/><path d="M160-131c35 5 61 23 61 61C221 17 115-2 30 0v-248c76 3 177-17 177 60 0 33-19 50-47 57zm-97-11c50-1 110 9 110-42 0-47-63-36-110-37v79zm0 115c55-2 124 14 124-45 0-56-70-42-124-44v89" id="be"/><g id="y"><use transform="matrix(0.05,0,0,0.05,0,0)" xlink:href="#bd"/><use transform="matrix(0.05,0,0,0.05,12.950000000000001,0)" xlink:href="#aV"/><use transform="matrix(0.05,0,0,0.05,21.950000000000003,0)" xlink:href="#aS"/><use transform="matrix(0.05,0,0,0.05,31.950000000000003,0)" xlink:href="#aW"/><use transform="matrix(0.05,0,0,0.05,41.95,0)" xlink:href="#ba"/><use transform="matrix(0.05,0,0,0.05,56.900000000000006,0)" xlink:href="#bc"/><use transform="matrix(0.05,0,0,0.05,66.9,0)" xlink:href="#bd"/><use transform="matrix(0.05,0,0,0.05,79.85000000000001,0)" xlink:href="#be"/></g><path fill="#3a414a" d="M205 0l-28-72H64L36 0H1l101-248h38L239 0h-34zm-38-99l-47-123c-12 45-31 82-46 123h93" id="bf"/><path fill="#3a414a" d="M266 0h-40l-56-210L115 0H75L2-248h35L96-30l15-64 43-154h32l59 218 59-218h35" id="bg"/><path fill="#3a414a" d="M185-189c-5-48-123-54-124 2 14 75 158 14 163 119 3 78-121 87-175 55-17-10-28-26-33-46l33-7c5 56 141 63 141-1 0-78-155-14-162-118-5-82 145-84 179-34 5 7 8 16 11 25" id="bh"/><g id="z"><use transform="matrix(0.08024691358024691,0,0,0.08024691358024691,0,0)" xlink:href="#bf"/><use transform="matrix(0.08024691358024691,0,0,0.08024691358024691,18.21604938271605,0)" xlink:href="#bg"/><use transform="matrix(0.08024691358024691,0,0,0.08024691358024691,45.41975308641975,0)" xlink:href="#bh"/></g><path fill="#3a414a" d="M115-194c55 1 70 41 70 98S169 2 115 4C84 4 66-9 55-30l1 105H24l-1-265h31l2 30c10-21 28-34 59-34zm-8 174c40 0 45-34 45-75s-6-73-45-74c-42 0-51 32-51 76 0 43 10 73 51 73" id="bi"/><path fill="#3a414a" d="M179-190L93 31C79 59 56 82 12 73V49c39 6 53-20 64-50L1-190h34L92-34l54-156h33" id="bj"/><path fill="#3a414a" d="M117-194c89-4 53 116 60 194h-32v-121c0-31-8-49-39-48C34-167 62-67 57 0H25l-1-190h30c1 10-1 24 2 32 11-22 29-35 61-36" id="bk"/><path fill="#3a414a" d="M96-169c-40 0-48 33-48 73s9 75 48 75c24 0 41-14 43-38l32 2c-6 37-31 61-74 61-59 0-76-41-82-99-10-93 101-131 147-64 4 7 5 14 7 22l-32 3c-4-21-16-35-41-35" id="bl"/><g id="A"><use transform="matrix(0.08024691358024691,0,0,0.08024691358024691,0,0)" xlink:href="#bf"/><use transform="matrix(0.08024691358024691,0,0,0.08024691358024691,19.25925925925926,0)" xlink:href="#bi"/><use transform="matrix(0.08024691358024691,0,0,0.08024691358024691,35.308641975308646,0)" xlink:href="#bi"/><use transform="matrix(0.08024691358024691,0,0,0.08024691358024691,51.358024691358025,0)" xlink:href="#bh"/><use transform="matrix(0.08024691358024691,0,0,0.08024691358024691,70.61728395061729,0)" xlink:href="#bj"/><use transform="matrix(0.08024691358024691,0,0,0.08024691358024691,85.06172839506173,0)" xlink:href="#bk"/><use transform="matrix(0.08024691358024691,0,0,0.08024691358024691,101.1111111111111,0)" xlink:href="#bl"/></g><path fill="#3a414a" d="M210-169c-67 3-38 105-44 169h-31v-121c0-29-5-50-35-48C34-165 62-65 56 0H25l-1-190h30c1 10-1 24 2 32 10-44 99-50 107 0 11-21 27-35 58-36 85-2 47 119 55 194h-31v-121c0-29-5-49-35-48" id="bm"/><path fill="#3a414a" d="M141-36C126-15 110 5 73 4 37 3 15-17 15-53c-1-64 63-63 125-63 3-35-9-54-41-54-24 1-41 7-42 31l-33-3c5-37 33-52 76-52 45 0 72 20 72 64v82c-1 20 7 32 28 27v20c-31 9-61-2-59-35zM48-53c0 20 12 33 32 33 41-3 63-29 60-74-43 2-92-5-92 41" id="bn"/><path fill="#3a414a" d="M9 0v-24l116-142H16v-24h144v24L44-24h123V0H9" id="bo"/><path fill="#3a414a" d="M100-194c62-1 85 37 85 99 1 63-27 99-86 99S16-35 15-95c0-66 28-99 85-99zM99-20c44 1 53-31 53-75 0-43-8-75-51-75s-53 32-53 75 10 74 51 75" id="bp"/><g id="B"><use transform="matrix(0.08024691358024691,0,0,0.08024691358024691,0,0)" xlink:href="#bf"/><use transform="matrix(0.08024691358024691,0,0,0.08024691358024691,19.25925925925926,0)" xlink:href="#bm"/><use transform="matrix(0.08024691358024691,0,0,0.08024691358024691,43.253086419753096,0)" xlink:href="#bn"/><use transform="matrix(0.08024691358024691,0,0,0.08024691358024691,59.30246913580247,0)" xlink:href="#bo"/><use transform="matrix(0.08024691358024691,0,0,0.08024691358024691,73.74691358024691,0)" xlink:href="#bp"/><use transform="matrix(0.08024691358024691,0,0,0.08024691358024691,89.79629629629629,0)" xlink:href="#bk"/></g><path fill="#3a414a" d="M233-177c-1 41-23 64-60 70L243 0h-38l-65-103H63V0H30v-248c88 3 205-21 203 71zM63-129c60-2 137 13 137-47 0-61-80-42-137-45v92" id="bq"/><path fill="#3a414a" d="M30-248c118-7 216 8 213 122C240-48 200 0 122 0H30v-248zM63-27c89 8 146-16 146-99s-60-101-146-95v194" id="br"/><g id="C"><use transform="matrix(0.08024691358024691,0,0,0.08024691358024691,0,0)" xlink:href="#bq"/><use transform="matrix(0.08024691358024691,0,0,0.08024691358024691,20.78395061728395,0)" xlink:href="#br"/><use transform="matrix(0.08024691358024691,0,0,0.08024691358024691,41.5679012345679,0)" xlink:href="#bh"/></g><path fill="#3a414a" d="M135-194c53 0 70 44 70 98 0 56-19 98-73 100-31 1-45-17-59-34 3 33 2 69 2 105H25l-1-265h48c2 10 0 23 3 31 11-24 29-35 60-35zM114-30c33 0 39-31 40-66 0-38-9-64-40-64-56 0-55 130 0 130" id="bs"/><path fill="#3a414a" d="M25-224v-37h50v37H25zM25 0v-190h50V0H25" id="bt"/><path fill="#3a414a" d="M24 0v-54h51V0H24" id="bu"/><path fill="#3a414a" d="M137-138c1-29-70-34-71-4 15 46 118 7 119 86 1 83-164 76-172 9l43-7c4 19 20 25 44 25 33 8 57-30 24-41C81-84 22-81 20-136c-2-80 154-74 161-7" id="bv"/><path fill="#3a414a" d="M114-157C55-157 80-60 75 0H25v-261h50l-1 109c12-26 28-41 61-42 86-1 58 113 63 194h-50c-7-57 23-157-34-157" id="bw"/><path fill="#3a414a" d="M220-157c-53 9-28 100-34 157h-49v-107c1-27-5-49-29-50C55-147 81-57 75 0H25l-1-190h47c2 12-1 28 3 38 10-53 101-56 108 0 13-22 24-43 59-42 82 1 51 116 57 194h-49v-107c-1-25-5-48-29-50" id="bx"/><path fill="#3a414a" d="M123 10C108 53 80 86 19 72V37c35 8 53-11 59-39L3-190h52l48 148c12-52 28-100 44-148h51" id="by"/><g id="D"><use transform="matrix(0.08024691358024691,0,0,0.08024691358024691,0,0)" xlink:href="#aB"/><use transform="matrix(0.08024691358024691,0,0,0.08024691358024691,16.049382716049383,0)" xlink:href="#bs"/><use transform="matrix(0.08024691358024691,0,0,0.08024691358024691,33.623456790123456,0)" xlink:href="#bt"/><use transform="matrix(0.08024691358024691,0,0,0.08024691358024691,41.648148148148145,0)" xlink:href="#bu"/><use transform="matrix(0.08024691358024691,0,0,0.08024691358024691,49.672839506172835,0)" xlink:href="#aB"/><use transform="matrix(0.08024691358024691,0,0,0.08024691358024691,65.72222222222221,0)" xlink:href="#ay"/><use transform="matrix(0.08024691358024691,0,0,0.08024691358024691,81.7716049382716,0)" xlink:href="#aF"/><use transform="matrix(0.08024691358024691,0,0,0.08024691358024691,89.79629629629629,0)" xlink:href="#bv"/><use transform="matrix(0.08024691358024691,0,0,0.08024691358024691,105.84567901234567,0)" xlink:href="#bw"/><use transform="matrix(0.08024691358024691,0,0,0.08024691358024691,123.41975308641975,0)" xlink:href="#bt"/><use transform="matrix(0.08024691358024691,0,0,0.08024691358024691,131.44444444444443,0)" xlink:href="#bx"/><use transform="matrix(0.08024691358024691,0,0,0.08024691358024691,157.12345679012344,0)" xlink:href="#by"/><use transform="matrix(0.08024691358024691,0,0,0.08024691358024691,171.00617283950615,0)" xlink:href="#bu"/><use transform="matrix(0.08024691358024691,0,0,0.08024691358024691,179.03086419753086,0)" xlink:href="#bv"/><use transform="matrix(0.08024691358024691,0,0,0.08024691358024691,195.08024691358023,0)" xlink:href="#bt"/><use transform="matrix(0.08024691358024691,0,0,0.08024691358024691,203.10493827160494,0)" xlink:href="#ax"/><use transform="matrix(0.08024691358024691,0,0,0.08024691358024691,212.65432098765436,0)" xlink:href="#ay"/></g><g id="E"><use transform="matrix(0.08024691358024691,0,0,0.08024691358024691,0,0)" xlink:href="#aB"/><use transform="matrix(0.08024691358024691,0,0,0.08024691358024691,16.049382716049383,0)" xlink:href="#bs"/><use transform="matrix(0.08024691358024691,0,0,0.08024691358024691,33.623456790123456,0)" xlink:href="#bs"/><use transform="matrix(0.08024691358024691,0,0,0.08024691358024691,51.197530864197525,0)" xlink:href="#bu"/><use transform="matrix(0.08024691358024691,0,0,0.08024691358024691,59.22222222222222,0)" xlink:href="#aB"/><use transform="matrix(0.08024691358024691,0,0,0.08024691358024691,75.27160493827161,0)" xlink:href="#ay"/><use transform="matrix(0.08024691358024691,0,0,0.08024691358024691,91.32098765432099,0)" xlink:href="#aF"/><use transform="matrix(0.08024691358024691,0,0,0.08024691358024691,99.3456790123457,0)" xlink:href="#bv"/><use transform="matrix(0.08024691358024691,0,0,0.08024691358024691,115.39506172839505,0)" xlink:href="#bw"/><use transform="matrix(0.08024691358024691,0,0,0.08024691358024691,132.96913580246914,0)" xlink:href="#bt"/><use transform="matrix(0.08024691358024691,0,0,0.08024691358024691,140.99382716049382,0)" xlink:href="#bx"/><use transform="matrix(0.08024691358024691,0,0,0.08024691358024691,166.67283950617283,0)" xlink:href="#by"/><use transform="matrix(0.08024691358024691,0,0,0.08024691358024691,180.55555555555557,0)" xlink:href="#bu"/><use transform="matrix(0.08024691358024691,0,0,0.08024691358024691,188.58024691358023,0)" xlink:href="#bv"/><use transform="matrix(0.08024691358024691,0,0,0.08024691358024691,204.62962962962965,0)" xlink:href="#bt"/><use transform="matrix(0.08024691358024691,0,0,0.08024691358024691,212.65432098765436,0)" xlink:href="#ax"/><use transform="matrix(0.08024691358024691,0,0,0.08024691358024691,222.20370370370372,0)" xlink:href="#ay"/></g><path fill="#3a414a" d="M100-194c63 0 86 42 84 106H49c0 40 14 67 53 68 26 1 43-12 49-29l28 8c-11 28-37 45-77 45C44 4 14-33 15-96c1-61 26-98 85-98zm52 81c6-60-76-77-97-28-3 7-6 17-6 28h103" id="bz"/><path fill="#3a414a" d="M135-143c-3-34-86-38-87 0 15 53 115 12 119 90S17 21 10-45l28-5c4 36 97 45 98 0-10-56-113-15-118-90-4-57 82-63 122-42 12 7 21 19 24 35" id="bA"/><path fill="#3a414a" d="M59-47c-2 24 18 29 38 22v24C64 9 27 4 27-40v-127H5v-23h24l9-43h21v43h35v23H59v120" id="bB"/><g id="F"><use transform="matrix(0.08024691358024691,0,0,0.08024691358024691,0,0)" xlink:href="#bq"/><use transform="matrix(0.08024691358024691,0,0,0.08024691358024691,20.78395061728395,0)" xlink:href="#bz"/><use transform="matrix(0.08024691358024691,0,0,0.08024691358024691,36.83333333333333,0)" xlink:href="#bA"/><use transform="matrix(0.08024691358024691,0,0,0.08024691358024691,51.27777777777777,0)" xlink:href="#bB"/></g><path fill="#3a414a" d="M30-248c87 1 191-15 191 75 0 78-77 80-158 76V0H30v-248zm33 125c57 0 124 11 124-50 0-59-68-47-124-48v98" id="bC"/><path fill="#3a414a" d="M33 0v-248h34V0H33" id="bD"/><g id="G"><use transform="matrix(0.08024691358024691,0,0,0.08024691358024691,0,0)" xlink:href="#bf"/><use transform="matrix(0.08024691358024691,0,0,0.08024691358024691,19.25925925925926,0)" xlink:href="#bC"/><use transform="matrix(0.08024691358024691,0,0,0.08024691358024691,38.51851851851852,0)" xlink:href="#bD"/></g><path fill="#3a414a" d="M128 0H69L1-190h53L99-40l48-150h52" id="bE"/><g id="H"><use transform="matrix(0.08024691358024691,0,0,0.08024691358024691,0,0)" xlink:href="#aI"/><use transform="matrix(0.08024691358024691,0,0,0.08024691358024691,19.25925925925926,0)" xlink:href="#ay"/><use transform="matrix(0.08024691358024691,0,0,0.08024691358024691,35.308641975308646,0)" xlink:href="#au"/><use transform="matrix(0.08024691358024691,0,0,0.08024691358024691,46.543209876543216,0)" xlink:href="#bE"/><use transform="matrix(0.08024691358024691,0,0,0.08024691358024691,62.592592592592595,0)" xlink:href="#ay"/><use transform="matrix(0.08024691358024691,0,0,0.08024691358024691,78.64197530864197,0)" xlink:href="#au"/><use transform="matrix(0.08024691358024691,0,0,0.08024691358024691,89.87654320987654,0)" xlink:href="#aF"/><use transform="matrix(0.08024691358024691,0,0,0.08024691358024691,97.90123456790124,0)" xlink:href="#ay"/><use transform="matrix(0.08024691358024691,0,0,0.08024691358024691,113.95061728395063,0)" xlink:href="#bv"/><use transform="matrix(0.08024691358024691,0,0,0.08024691358024691,130,0)" xlink:href="#bv"/></g><path fill="#3a414a" d="M67-125c0 53 21 87 73 88 37 1 54-22 65-47l45 17C233-25 199 4 140 4 58 4 20-42 15-125 8-235 124-281 211-232c18 10 29 29 36 50l-46 12c-8-25-30-41-62-41-52 0-71 34-72 86" id="bF"/><g id="I"><use transform="matrix(0.08024691358024691,0,0,0.08024691358024691,0,0)" xlink:href="#bF"/><use transform="matrix(0.08024691358024691,0,0,0.08024691358024691,20.78395061728395,0)" xlink:href="#aB"/><use transform="matrix(0.08024691358024691,0,0,0.08024691358024691,36.83333333333333,0)" xlink:href="#bv"/><use transform="matrix(0.08024691358024691,0,0,0.08024691358024691,52.8827160493827,0)" xlink:href="#bw"/></g><g id="J"><use transform="matrix(0.09259259259259256,0,0,0.09259259259259256,0,0)" xlink:href="#aB"/><use transform="matrix(0.09259259259259256,0,0,0.09259259259259256,18.518518518518512,0)" xlink:href="#ay"/><use transform="matrix(0.09259259259259256,0,0,0.09259259259259256,37.037037037037024,0)" xlink:href="#aF"/><use transform="matrix(0.09259259259259256,0,0,0.09259259259259256,46.296296296296276,0)" xlink:href="#bv"/><use transform="matrix(0.09259259259259256,0,0,0.09259259259259256,64.81481481481478,0)" xlink:href="#bw"/><use transform="matrix(0.09259259259259256,0,0,0.09259259259259256,85.09259259259255,0)" xlink:href="#bt"/><use transform="matrix(0.09259259259259256,0,0,0.09259259259259256,94.3518518518518,0)" xlink:href="#bx"/><use transform="matrix(0.09259259259259256,0,0,0.09259259259259256,123.98148148148141,0)" xlink:href="#by"/><use transform="matrix(0.09259259259259256,0,0,0.09259259259259256,139.99999999999994,0)" xlink:href="#bu"/><use transform="matrix(0.09259259259259256,0,0,0.09259259259259256,149.2592592592592,0)" xlink:href="#bv"/><use transform="matrix(0.09259259259259256,0,0,0.09259259259259256,167.77777777777771,0)" xlink:href="#bt"/><use transform="matrix(0.09259259259259256,0,0,0.09259259259259256,177.03703703703698,0)" xlink:href="#ax"/><use transform="matrix(0.09259259259259256,0,0,0.09259259259259256,188.0555555555555,0)" xlink:href="#ay"/></g><path fill="#3a414a" d="M23 0v-37h61v-169l-59 37v-38l62-41h46v211h57V0H23" id="bG"/><path fill="#3a414a" d="M182-182c0 78-84 86-111 141h115V0H12c-6-101 99-100 120-180 1-22-12-31-33-32-23 0-32 14-35 34l-49-3c5-45 32-70 84-70 51 0 83 22 83 69" id="bH"/><path fill="#3a414a" d="M52 0c1-96 47-148 87-207H15v-41h169v40c-36 62-79 113-81 208H52" id="bI"/><path fill="#3a414a" d="M101-251c68 0 84 54 84 127C185-50 166 4 99 4S15-52 14-124c-1-75 17-127 87-127zm-1 216c37-5 36-46 36-89s4-89-36-89c-39 0-36 45-36 89 0 43-3 85 36 89" id="bJ"/><g id="K"><use transform="matrix(0.08641975308641973,0,0,0.08641975308641973,0,0)" xlink:href="#bG"/><use transform="matrix(0.08641975308641973,0,0,0.08641975308641973,17.283950617283946,0)" xlink:href="#bH"/><use transform="matrix(0.08641975308641973,0,0,0.08641975308641973,34.56790123456789,0)" xlink:href="#bI"/><use transform="matrix(0.08641975308641973,0,0,0.08641975308641973,51.85185185185183,0)" xlink:href="#bu"/><use transform="matrix(0.08641975308641973,0,0,0.08641975308641973,60.4938271604938,0)" xlink:href="#bJ"/><use transform="matrix(0.08641975308641973,0,0,0.08641975308641973,77.77777777777776,0)" xlink:href="#bu"/><use transform="matrix(0.08641975308641973,0,0,0.08641975308641973,86.41975308641973,0)" xlink:href="#bJ"/><use transform="matrix(0.08641975308641973,0,0,0.08641975308641973,103.70370370370368,0)" xlink:href="#bu"/><use transform="matrix(0.08641975308641973,0,0,0.08641975308641973,112.34567901234566,0)" xlink:href="#bG"/></g></defs></g></svg>